<svg width="17" height="17" viewBox="0 0 17 17" fill="none" xmlns="http://www.w3.org/2000/svg">
<path fill-rule="evenodd" clip-rule="evenodd" d="M5.4666 5.3001V4.5001C5.4666 3.17461 6.54112 2.1001 7.8666 2.1001H9.4666C10.7921 2.1001 11.8666 3.17461 11.8666 4.5001V5.3001H13.4666C14.3503 5.3001 15.0666 6.01644 15.0666 6.9001V9.75671C13.0743 10.4959 10.9185 10.9001 8.66662 10.9001C6.41472 10.9001 4.25889 10.4959 2.2666 9.75669V6.9001C2.2666 6.01644 2.98295 5.3001 3.8666 5.3001H5.4666ZM7.0666 4.5001C7.0666 4.05827 7.42477 3.7001 7.8666 3.7001H9.4666C9.90843 3.7001 10.2666 4.05827 10.2666 4.5001V5.3001H7.0666V4.5001ZM7.8666 8.5001C7.8666 8.05827 8.22477 7.7001 8.6666 7.7001H8.6746C9.11643 7.7001 9.4746 8.05827 9.4746 8.5001C9.4746 8.94193 9.11643 9.3001 8.6746 9.3001H8.6666C8.22477 9.3001 7.8666 8.94193 7.8666 8.5001Z" fill="white"/>
<path d="M2.2666 11.4539V13.3001C2.2666 14.1838 2.98295 14.9001 3.8666 14.9001H13.4666C14.3503 14.9001 15.0666 14.1838 15.0666 13.3001V11.4539C13.0564 12.1325 10.9037 12.5001 8.66662 12.5001C6.4295 12.5001 4.27684 12.1324 2.2666 11.4539Z" fill="white"/>
</svg>
