<svg width="17" height="17" viewBox="0 0 17 17" fill="none" xmlns="http://www.w3.org/2000/svg">
<path fill-rule="evenodd" clip-rule="evenodd" d="M15.0666 8.5001C15.0666 12.0347 12.2012 14.9001 8.6666 14.9001C5.13198 14.9001 2.2666 12.0347 2.2666 8.5001C2.2666 4.96548 5.13198 2.1001 8.6666 2.1001C12.2012 2.1001 15.0666 4.96548 15.0666 8.5001ZM8.66661 6.1001C8.37151 6.1001 8.11268 6.25947 7.97315 6.50068C7.75191 6.88313 7.26253 7.01382 6.88008 6.79258C6.49763 6.57135 6.36694 6.08197 6.58818 5.69952C7.00194 4.98424 7.77727 4.5001 8.66661 4.5001C9.9921 4.5001 11.0666 5.57461 11.0666 6.9001C11.0666 7.94507 10.3988 8.83406 9.46661 9.16353V9.3001C9.46661 9.74192 9.10844 10.1001 8.66661 10.1001C8.22478 10.1001 7.86661 9.74192 7.86661 9.3001V8.5001C7.86661 8.05827 8.22478 7.7001 8.66661 7.7001C9.10844 7.7001 9.46661 7.34193 9.46661 6.9001C9.46661 6.45827 9.10844 6.1001 8.66661 6.1001ZM8.6666 12.5001C9.10843 12.5001 9.4666 12.1419 9.4666 11.7001C9.4666 11.2583 9.10843 10.9001 8.6666 10.9001C8.22477 10.9001 7.8666 11.2583 7.8666 11.7001C7.8666 12.1419 8.22477 12.5001 8.6666 12.5001Z" fill="white"/>
</svg>
