<svg width="17" height="17" viewBox="0 0 17 17" fill="none" xmlns="http://www.w3.org/2000/svg">
<g clip-path="url(#clip0_522_2666)">
<path d="M8.33325 6.83313C7.95651 6.83325 7.58827 6.93111 7.27509 7.11435C6.9619 7.29758 6.71785 7.55795 6.57377 7.86255C6.4297 8.16714 6.39207 8.50227 6.46566 8.82557C6.53924 9.14887 6.72073 9.44583 6.98718 9.67888C7.25363 9.91193 7.59307 10.0706 7.96258 10.1349C8.3321 10.1992 8.71509 10.1661 9.06314 10.0399C9.4112 9.91375 9.70867 9.7001 9.91797 9.426C10.1273 9.1519 10.239 8.82965 10.239 8.5C10.2386 8.05791 10.0377 7.63403 9.68033 7.32149C9.323 7.00894 8.8385 6.83329 8.33325 6.83313V6.83313ZM12.7872 5.55188C12.6902 5.33683 12.5438 5.14151 12.3569 4.97803C12.1701 4.81456 11.9469 4.68642 11.7011 4.60156C10.9511 4.3425 9.1654 4.40062 8.33325 4.40062C7.50111 4.40062 5.71718 4.34031 4.96504 4.60156C4.71927 4.68642 4.49604 4.81456 4.30922 4.97803C4.12239 5.14151 3.97595 5.33683 3.87897 5.55188C3.58325 6.20813 3.64932 7.77219 3.64932 8.49969C3.64932 9.22719 3.58325 10.7894 3.88039 11.4478C3.97737 11.6629 4.12382 11.8582 4.31065 12.0217C4.49747 12.1851 4.7207 12.3133 4.96647 12.3981C5.71647 12.6572 7.50218 12.5991 8.33468 12.5991C9.16718 12.5991 10.9504 12.6594 11.7025 12.3981C11.9483 12.3133 12.1715 12.1851 12.3584 12.0217C12.5452 11.8582 12.6916 11.6629 12.7886 11.4478C13.0868 10.7916 13.0183 9.2275 13.0183 8.5C13.0183 7.7725 13.0868 6.21062 12.7886 5.55219L12.7872 5.55188ZM8.33325 11.0625C7.75404 11.0625 7.18783 10.9122 6.70622 10.6306C6.22462 10.3491 5.84926 9.94886 5.62761 9.48063C5.40595 9.01239 5.34795 8.49716 5.46095 8.00008C5.57395 7.503 5.85287 7.04641 6.26244 6.68804C6.67201 6.32967 7.19383 6.08561 7.76192 5.98674C8.33 5.88786 8.91884 5.93861 9.45397 6.13256C9.98909 6.32651 10.4465 6.65495 10.7683 7.07635C11.0901 7.49775 11.2618 7.99319 11.2618 8.5C11.2623 8.83663 11.1869 9.17003 11.0399 9.48111C10.8928 9.79219 10.6772 10.0748 10.4051 10.3129C10.1331 10.5509 9.81005 10.7396 9.45452 10.8683C9.099 10.9969 8.71797 11.0629 8.33325 11.0625V11.0625ZM11.3825 6.42812C11.2473 6.42819 11.1151 6.39316 11.0027 6.32747C10.8902 6.26179 10.8025 6.1684 10.7507 6.05911C10.699 5.94982 10.6854 5.82955 10.7117 5.7135C10.738 5.59746 10.8031 5.49085 10.8987 5.40717C10.9943 5.32349 11.1161 5.26649 11.2487 5.24339C11.3813 5.22029 11.5188 5.23211 11.6437 5.27737C11.7686 5.32264 11.8754 5.3993 11.9505 5.49767C12.0257 5.59604 12.0658 5.71169 12.0658 5.83C12.0661 5.90857 12.0488 5.98643 12.0147 6.05911C11.9806 6.13179 11.9304 6.19787 11.8671 6.25356C11.8038 6.30925 11.7285 6.35344 11.6456 6.38361C11.5627 6.41378 11.4738 6.42933 11.384 6.42938L11.3825 6.42812ZM14.619 1.5H2.04754C1.59288 1.5 1.15685 1.65804 0.835355 1.93934C0.513864 2.22064 0.333252 2.60218 0.333252 3L0.333252 14C0.333252 14.3978 0.513864 14.7794 0.835355 15.0607C1.15685 15.342 1.59288 15.5 2.04754 15.5H14.619C15.0736 15.5 15.5097 15.342 15.8312 15.0607C16.1526 14.7794 16.3333 14.3978 16.3333 14V3C16.3333 2.60218 16.1526 2.22064 15.8312 1.93934C15.5097 1.65804 15.0736 1.5 14.619 1.5V1.5ZM14.0075 10.5625C13.9615 11.3634 13.7525 12.0731 13.0843 12.6562C12.4161 13.2394 11.6058 13.4259 10.6915 13.4641C9.74825 13.5106 6.9204 13.5106 5.97718 13.4641C5.06182 13.4238 4.25361 13.2406 3.58432 12.6562C2.91504 12.0719 2.70468 11.3619 2.66111 10.5625C2.60789 9.73687 2.60789 7.26219 2.66111 6.4375C2.70718 5.63656 2.91361 4.92687 3.58432 4.34375C4.25504 3.76063 5.06539 3.57625 5.97718 3.53813C6.9204 3.49156 9.74825 3.49156 10.6915 3.53813C11.6068 3.57844 12.4175 3.76156 13.0843 4.34594C13.7511 4.93031 13.964 5.64031 14.0075 6.44125C14.0608 7.26375 14.0608 9.73625 14.0075 10.5625Z" fill="white"/>
</g>
<defs>
<clipPath id="clip0_522_2666">
<rect width="16" height="16" fill="white" transform="translate(0.333252 0.5)"/>
</clipPath>
</defs>
</svg>
