<svg width="16" height="17" viewBox="0 0 16 17" fill="none" xmlns="http://www.w3.org/2000/svg">
<path d="M1.6001 2.9001C1.6001 2.45827 1.95827 2.1001 2.4001 2.1001H4.1224C4.51347 2.1001 4.84722 2.38283 4.91151 2.76858L5.50296 6.31728C5.5607 6.6637 5.38574 7.00727 5.07162 7.16434L3.83311 7.78359C4.72614 10.0028 6.49744 11.7741 8.7166 12.6671L9.33586 11.4286C9.49292 11.1145 9.83649 10.9395 10.1829 10.9972L13.7316 11.5887C14.1174 11.653 14.4001 11.9867 14.4001 12.3778V14.1001C14.4001 14.5419 14.0419 14.9001 13.6001 14.9001H12.0001C6.25634 14.9001 1.6001 10.2439 1.6001 4.5001V2.9001Z" fill="white"/>
</svg>
