<svg width="17" height="17" viewBox="0 0 17 17" fill="none" xmlns="http://www.w3.org/2000/svg">
<g clip-path="url(#clip0_522_2675)">
<path d="M16.0003 4.84114C15.9097 4.51796 15.7333 4.22537 15.4897 3.99448C15.2392 3.75648 14.9322 3.58623 14.5977 3.49981C13.3457 3.16981 8.32966 3.16981 8.32966 3.16981C6.23855 3.14602 4.14795 3.25066 2.06966 3.48314C1.73512 3.57595 1.42871 3.75 1.17766 3.98981C0.930997 4.22714 0.75233 4.51981 0.658997 4.84048C0.434792 6.04831 0.325858 7.27471 0.333663 8.50314C0.325663 9.73048 0.43433 10.9565 0.658997 12.1658C0.75033 12.4851 0.92833 12.7765 1.17566 13.0118C1.423 13.2471 1.731 13.4171 2.06966 13.5071C3.33833 13.8365 8.32966 13.8365 8.32966 13.8365C10.4234 13.8603 12.5167 13.7557 14.5977 13.5231C14.9322 13.4367 15.2392 13.2665 15.4897 13.0285C15.7332 12.7976 15.9094 12.505 15.9997 12.1818C16.2297 10.9744 16.3416 9.74754 16.3337 8.51848C16.351 7.28421 16.2392 6.05152 16.0003 4.84048V4.84114ZM6.735 10.7858V6.22114L10.9083 8.50381L6.735 10.7858Z" fill="white"/>
</g>
<defs>
<clipPath id="clip0_522_2675">
<rect width="16" height="16" fill="white" transform="translate(0.333252 0.5)"/>
</clipPath>
</defs>
</svg>
