<svg width="263" height="124" viewBox="0 0 263 124" fill="none" xmlns="http://www.w3.org/2000/svg">
<path fill-rule="evenodd" clip-rule="evenodd" d="M38.7547 0.338808C38.3586 0.549806 37.4093 1.54608 36.5038 2.70089C29.0308 12.2334 22.8077 18.7289 13.9948 26.1949C12.9182 27.1068 11.6943 28.1161 11.2751 28.4379C9.44088 29.8452 6.10367 32.2754 4.02168 33.7203C1.81051 35.2546 1.17321 35.9624 1.17517 36.8816C1.17654 37.5815 1.93969 38.4826 3.3286 39.4241C4.10037 39.9471 5.0293 40.5954 5.39297 40.8645C5.75664 41.1336 6.47556 41.6586 6.99053 42.0312C17.5537 49.672 28.3499 60.1219 35.2171 69.3531C35.6937 69.9937 36.3186 70.826 36.606 71.2028C36.8933 71.5796 37.2799 72.181 37.4652 72.5394C37.9861 73.5468 39.871 74.1064 40.896 73.5578C41.0906 73.4537 41.8981 72.5069 42.6905 71.4537C50.44 61.1532 60.4566 51.1852 70.899 43.3814C74.6157 40.604 75.2215 40.1794 76.3239 39.5793C78.657 38.3096 79.0915 36.7465 77.5582 35.1394C77.2757 34.8434 76.9698 34.6011 76.8784 34.6011C76.6517 34.6011 73.3965 32.3445 70.681 30.3052C69.4551 29.3845 68.222 28.4595 67.9407 28.2494C67.6595 28.0394 66.8127 27.3479 66.0592 26.7126C65.3056 26.0774 64.4689 25.3757 64.1997 25.1536C60.3329 21.9614 51.9014 13.5549 48.5473 9.54755C44.8825 5.16886 44.5474 4.75097 43.0663 2.71439C41.1279 0.0489305 40.2292 -0.446269 38.7547 0.338808ZM42.6693 10.3089C45.2665 11.6397 52.9362 18.0638 57.447 22.6866C63.106 28.4859 67.5534 33.9875 68.2304 36.0262C68.5336 36.9389 68.5344 37.0853 68.2408 38.0084C67.4939 40.3566 64.1261 44.4896 57.8518 50.7583C53.2877 55.3184 50.277 58.0056 46.5839 60.8159C43.3143 63.3041 42.2221 63.9795 41.0168 64.2598C39.6525 64.5769 38.9839 64.425 37.1491 63.381C32.5217 60.7482 21.6758 51.1175 16.2003 44.7791C14.3105 42.5918 11.7912 39.2035 11.4536 38.3957C10.6395 36.4472 11.2802 35.0849 15.2598 30.3027C17.047 28.1549 23.0755 21.9449 25.5429 19.7101C30.5608 15.1648 36.5688 10.4338 38.1951 9.7472C38.449 9.63994 39.2734 9.57593 40.027 9.60471C41.1299 9.64679 41.6453 9.78419 42.6693 10.3089ZM88.2094 10.6568C88.1376 10.7284 88.0789 23.72 88.0789 39.5271V68.2668H96.1039H104.129V39.3965V10.5262H96.2344C91.8923 10.5262 88.2811 10.5849 88.2094 10.6568ZM112.545 39.3965V68.2668H134.565H156.585V62.6898V57.1127L142.586 57.0626L128.588 57.0123L128.543 50.9957C128.506 46.134 128.547 44.9598 128.758 44.8791C128.901 44.8241 134.693 44.7791 141.627 44.7791H154.236V39.2021V33.6252L141.409 33.5749L128.583 33.5246V27.6527V21.7807L142.584 21.7304L156.585 21.6803V16.1032V10.5262H134.565H112.545V39.3965ZM165.588 39.3965V68.2668H187.608H209.628V62.6885V57.1102H195.633H181.638V50.9446V44.7791H194.459H207.279V39.2008V33.6224H194.459H181.638V27.6527V21.6829H195.633H209.628V16.1045V10.5262H187.608H165.588V39.3965ZM218.631 39.3957V68.2668H240.654H262.677L262.625 62.7374L262.573 57.208L248.578 57.1102L234.583 57.0123V50.9446V44.877L247.453 44.8267L260.322 44.7764V39.1994V33.6224H247.401H234.48L234.532 27.7016L234.583 21.7807L248.63 21.7304L262.677 21.6803L262.625 16.1521L262.573 10.6241L240.602 10.5744L218.631 10.5244V39.3957ZM38.3478 11.399C37.0861 11.8636 32.8957 15.0347 28.7249 18.6811C21.8737 24.6711 14.9838 32.1048 13.4769 35.1321C12.9523 36.1859 12.8899 36.4733 13.0081 37.2852C13.1592 38.3233 13.2846 38.5535 14.8513 40.6688C18.3122 45.3412 23.3994 50.489 31.1966 57.208C33.1145 58.8608 35.9039 60.8862 37.5146 61.7957C39.9156 63.1516 40.7627 63.0408 43.8437 60.9686C51.3848 55.8966 63.4526 43.8954 66.1261 38.8093C66.8816 37.3719 66.9036 36.5854 66.2257 35.2454C65.6599 34.1272 62.1234 29.6119 59.7425 26.9676C57.88 24.8993 52.8233 19.863 51.6851 18.9426C51.2191 18.5659 50.1194 17.641 49.2416 16.8875C43.1915 11.6945 40.8073 10.4931 38.3478 11.399ZM40.5012 18.7958C41.3458 21.1152 42.5135 24.1959 43.4767 26.6456C43.8938 27.7067 44.2352 28.6499 44.2352 28.7415C44.2352 28.8333 43.5525 28.9341 42.7183 28.9656L41.2013 29.0228L41.208 30.0993C41.2117 30.6914 41.2894 33.214 41.3808 35.705L41.5468 40.234L40.7197 40.3738C40.2648 40.4507 39.4165 40.454 38.8344 40.3814L37.7761 40.2491L37.7931 39.0399C37.8025 38.3748 37.9127 35.8634 38.0378 33.459C38.163 31.0545 38.2286 29.0508 38.1838 29.0061C38.1389 28.9615 37.5592 28.9249 36.8953 28.9249C36.2313 28.9249 35.6428 28.8795 35.5872 28.8239C35.5316 28.7683 35.8137 27.8214 36.2139 26.7198C36.6144 25.618 37.5478 22.9778 38.2887 20.8526C39.0295 18.7273 39.6819 16.9879 39.7388 16.9869C39.7956 16.9861 40.1387 17.8 40.5012 18.7958ZM32.9922 32.2034C34.0067 32.8223 34.8374 33.3741 34.8383 33.4293C34.8393 33.4847 34.4218 33.6305 33.9104 33.7534C31.8366 34.2521 30.6468 34.8372 29.6043 35.8712C29.0091 36.4615 28.5767 37.0648 28.5767 37.3047C28.5767 37.8902 29.6158 39.0025 30.6145 39.486C31.0799 39.7112 32.4631 40.1334 33.6886 40.4243C35.7643 40.9169 36.2178 40.9532 40.3206 40.9541C44.6681 40.9553 44.757 40.9469 47.2539 40.307C51.7164 39.1634 53.4106 37.5273 51.9411 35.781C51.6579 35.4443 50.9801 34.943 50.4348 34.6667C49.452 34.1685 48.5949 34.1263 47.2623 34.5099C46.9159 34.6097 46.8063 34.452 46.4166 33.2917C46.1702 32.5587 45.9192 31.8352 45.8588 31.6843C45.7748 31.4755 45.8599 31.4422 46.2152 31.545C46.5965 31.6552 50.3899 32.5412 52.2192 32.9472C52.7397 33.0627 52.6134 33.4267 52.0529 33.4267C51.4263 33.4267 51.6168 33.7033 52.6655 34.3153C53.6925 34.9149 54.4637 35.7596 54.806 36.66C54.9589 37.0618 54.9213 37.3658 54.6404 38.0009C53.8019 39.8964 51.011 41.2468 46.0621 42.1516C43.42 42.6347 37.0657 42.7427 34.155 42.3542C30.122 41.8159 26.0467 40.4507 24.2327 39.0305C23.9398 38.8011 23.5202 38.2554 23.3002 37.8175C22.9226 37.0659 22.917 36.9657 23.1976 36.0205C23.4217 35.2658 23.7228 34.8188 24.4209 34.204C25.6791 33.0959 29.7223 31.1504 30.8899 31.0911C31.0318 31.0838 31.9777 31.5845 32.9922 32.2034ZM41.7715 43.8494C41.8698 44.3397 42.2822 52.5817 42.2794 54.0051L42.2779 54.9127L41.4047 55.0436C40.9246 55.1157 39.7676 55.1125 38.8336 55.0368L37.1356 54.899L37.2542 53.3132C37.3196 52.4412 37.4333 49.856 37.5069 47.5683L37.641 43.409H39.6621C41.6014 43.409 41.6868 43.4268 41.7715 43.8494ZM54.5837 64.9406C52.9943 65.7804 52.2447 67.406 52.6375 69.1609C52.9205 70.4257 53.2447 70.8792 54.3136 71.5056C55.4566 72.1756 57.3758 72.2171 58.4752 71.5954C61.1195 70.1004 61.0263 66.3162 58.311 64.9308C57.3188 64.4246 55.5512 64.4293 54.5837 64.9406ZM57.6198 65.6023C59.0221 66.1881 59.7061 68.2232 58.9747 69.633C58.4079 70.726 57.4531 71.2539 56.2221 71.155C54.5547 71.0211 53.5126 69.7563 53.6753 68.0636C53.8757 65.9762 55.7363 64.8153 57.6198 65.6023ZM55.0004 68.3647C55.0004 70.2893 55.0252 70.4198 55.3918 70.4198C55.7254 70.4198 55.7833 70.2893 55.7833 69.5391C55.7833 68.9051 55.8618 68.6583 56.0638 68.6583C56.218 68.6583 56.3977 68.8272 56.4633 69.0337C56.6672 69.6761 57.3601 70.4198 57.7549 70.4198C58.2307 70.4198 58.227 70.3484 57.7024 69.4152L57.2728 68.6506L57.7024 68.3498C58.2344 67.9773 58.2845 66.9578 57.7895 66.582C57.592 66.432 56.9291 66.3193 56.2237 66.3158L55.0004 66.3095V68.3647ZM57.099 67.1163C57.4768 67.4941 57.1493 67.8753 56.4474 67.8753C55.8694 67.8753 55.7833 67.8117 55.7833 67.386C55.7833 66.9807 55.8772 66.8967 56.3313 66.8967C56.6328 66.8967 56.9782 66.9955 57.099 67.1163ZM0 80.8914V83.1424H131.433H262.867V80.8914V78.6405H131.433H0V80.8914ZM135.739 89.5353C134.004 89.6962 134.076 89.613 134.076 91.4646C134.076 92.6517 134.145 93.1303 134.32 93.1442C135.454 93.235 137.918 93.0479 138.04 92.8618C138.122 92.7371 138.166 91.9307 138.138 91.0695L138.088 89.5036L137.305 89.4832C136.875 89.4719 136.17 89.4954 135.739 89.5353ZM194.263 89.5398C192.532 89.6905 192.599 89.6126 192.599 91.4646C192.599 92.6514 192.669 93.1303 192.844 93.1448C193.819 93.2256 196.265 93.0514 196.465 92.887C196.622 92.7572 196.71 92.143 196.71 91.1644C196.71 89.282 196.769 89.3214 194.263 89.5398ZM46.2377 91.5592C46.0482 91.8626 46.0392 92.3593 46.1982 93.7611C46.3113 94.758 46.3962 99.1324 46.3876 103.498C46.379 107.858 46.3755 111.536 46.38 111.67C46.3919 112.026 49.9781 112.012 50.2745 111.655C50.431 111.467 50.431 110.466 50.2746 107.985C50.1515 106.034 50.1001 101.812 50.1543 98.1158C50.2063 94.5632 50.2097 91.5466 50.1617 91.412C50.1004 91.2403 49.5383 91.1673 48.2784 91.1673C46.6938 91.1673 46.4536 91.2135 46.2377 91.5592ZM54.0217 91.4447C54.0217 91.5971 53.9242 91.7543 53.8052 91.794C53.6473 91.8467 53.6469 92.0761 53.8041 92.6422C53.9468 93.1561 54.02 96.5409 54.0205 102.667L54.0217 111.915H55.9628C57.3366 111.915 57.9303 111.843 57.9943 111.67C58.0442 111.536 58.0381 109.824 57.981 107.866L57.8768 104.307L60.0107 104.213C62.4589 104.105 63.7636 103.925 63.9189 103.673C63.9784 103.577 64.198 103.498 64.407 103.498C64.616 103.498 64.7869 103.41 64.7869 103.303C64.7869 103.195 64.9247 103.107 65.0932 103.107C65.4469 103.107 67.5271 101.125 67.5271 100.788C67.5271 100.664 67.6152 100.562 67.7229 100.562C67.8305 100.562 67.9186 100.392 67.9186 100.182C67.9186 99.9734 68.0067 99.7482 68.1143 99.6816C68.2232 99.6143 68.3101 98.7131 68.3101 97.6517C68.3101 96.1164 68.2294 95.5726 67.8979 94.8741C67.3228 93.6617 65.6284 92.0884 64.5657 91.7803C64.0954 91.6439 63.4399 91.4502 63.1093 91.3497C62.7787 91.2495 60.5987 91.1673 58.265 91.1673C54.7346 91.1673 54.0217 91.2139 54.0217 91.4447ZM71.0358 91.412C71.0278 91.5466 71.0282 96.1046 71.0366 101.541C71.045 106.977 71.0515 111.536 71.0511 111.67C71.0499 112.041 80.0165 112.011 81.2516 111.636C82.3956 111.289 83.5328 110.697 84.1735 110.116C84.8505 109.502 85.5344 108.497 85.5344 108.117C85.5344 107.945 85.6225 107.804 85.7301 107.804C85.846 107.804 85.9258 107.089 85.9258 106.049C85.9258 104.629 85.8474 104.153 85.5152 103.562C84.9885 102.624 83.8711 101.602 83.0474 101.304C82.6928 101.176 82.4027 100.99 82.4027 100.89C82.4027 100.791 82.7942 100.365 83.2727 99.9437C84.5068 98.8576 84.7706 98.2207 84.7708 96.3285C84.771 95.06 84.6851 94.5844 84.3479 93.9837C83.6256 92.6979 82.3375 91.8528 80.3937 91.3895C79.0416 91.0673 71.055 91.0865 71.0358 91.412ZM97.5442 91.4077C97.3299 91.7545 97.4673 107.301 97.6856 107.38C97.7844 107.416 97.8654 107.702 97.8654 108.016C97.8654 108.331 97.9535 108.587 98.0612 108.587C98.1688 108.587 98.2569 108.712 98.2569 108.866C98.2569 109.304 99.9762 110.909 100.973 111.401C102.398 112.105 103.825 112.349 105.988 112.256C108.031 112.169 108.849 112.005 110.024 111.448C111.308 110.838 112.937 109.037 112.937 108.226C112.937 108.007 113.012 107.781 113.104 107.724C113.196 107.667 113.337 107.068 113.417 106.391C113.602 104.831 113.608 91.9681 113.424 91.5098C113.311 91.2278 113.036 91.1673 111.87 91.1673C109.907 91.1673 109.678 91.4229 109.995 93.2599C110.246 94.7151 110.179 105.449 109.912 106.572C109.719 107.384 108.336 108.815 107.442 109.126C106.607 109.418 104.398 109.451 104.227 109.175C104.16 109.067 103.935 108.979 103.726 108.979C103.517 108.979 103.346 108.891 103.346 108.783C103.346 108.675 103.214 108.587 103.052 108.587C102.891 108.587 102.759 108.52 102.759 108.439C102.759 108.357 102.55 108.065 102.295 107.79C102.04 107.515 101.764 106.943 101.682 106.519C101.6 106.096 101.498 102.468 101.454 98.4583L101.375 91.1673H99.5338C98.2898 91.1673 97.6446 91.2452 97.5442 91.4077ZM202.826 92.3037C202.476 92.3382 202.19 92.449 202.19 92.5498C202.19 92.6508 201.904 92.7359 201.554 92.7394C200.415 92.7506 200.233 93.0571 200.233 94.9567V96.6478H199.275C198.189 96.6478 198.08 96.7821 198.08 98.1158C198.08 99.4495 198.189 99.5837 199.275 99.5837H200.233V104.673C200.233 107.935 200.303 109.762 200.428 109.762C200.536 109.762 200.624 109.893 200.624 110.053C200.624 110.497 201.222 111.118 202.092 111.577C202.726 111.912 203.216 111.99 204.673 111.987C206.939 111.983 207.083 111.878 207.083 110.229V108.984L205.794 109.003C205.084 109.013 204.409 108.928 204.294 108.812C204.041 108.56 203.839 102.084 204.034 100.517L204.169 99.4418L205.521 99.5385C206.831 99.6323 206.88 99.6194 207.107 99.121C207.32 98.6528 207.361 98.6374 207.562 98.9484C207.683 99.1363 207.969 99.7746 208.198 100.367C208.426 100.959 208.87 102.104 209.185 102.911C209.5 103.719 209.88 104.798 210.029 105.309C210.178 105.82 210.369 106.239 210.453 106.239C210.538 106.239 210.606 106.416 210.606 106.633C210.606 106.849 210.694 107.202 210.802 107.416C210.91 107.629 211.086 107.979 211.194 108.193C211.301 108.407 211.389 108.759 211.389 108.976C211.389 109.193 211.477 109.37 211.585 109.37C211.693 109.37 211.781 109.585 211.781 109.848C211.781 110.111 211.869 110.38 211.977 110.447C212.084 110.513 212.172 110.775 212.172 111.029C212.172 111.283 212.282 111.531 212.417 111.579C212.613 111.65 212.613 111.751 212.417 112.082C212.282 112.31 212.172 112.63 212.172 112.793C212.172 112.956 212.084 113.089 211.977 113.089C211.869 113.089 211.781 113.222 211.781 113.386C211.781 113.548 211.693 113.857 211.585 114.071C211.477 114.284 211.301 114.634 211.194 114.848C211.086 115.062 210.998 115.37 210.998 115.533C210.998 115.696 210.91 115.829 210.802 115.829C210.694 115.829 210.606 116.006 210.606 116.221C210.606 116.436 210.518 116.612 210.411 116.612C210.303 116.612 210.215 116.749 210.215 116.916C210.215 117.082 210.083 117.473 209.923 117.784C209.409 118.777 209.659 118.961 211.522 118.961C213.227 118.961 213.738 118.761 213.738 118.094C213.738 117.925 213.826 117.787 213.934 117.787C214.041 117.787 214.13 117.434 214.13 117.004C214.13 116.573 214.218 116.221 214.325 116.221C214.433 116.221 214.521 115.962 214.521 115.645C214.521 115.329 214.609 115.015 214.717 114.949C214.824 114.882 214.912 114.655 214.912 114.445C214.912 114.235 214.992 113.909 215.089 113.723C215.186 113.536 215.378 112.986 215.516 112.502C215.653 112.018 215.826 111.533 215.9 111.425C215.974 111.318 216.081 111.01 216.137 110.74C216.232 110.292 217.002 108.152 218.041 105.456C218.269 104.864 218.588 103.983 218.749 103.498C218.91 103.014 219.126 102.419 219.228 102.177C219.331 101.935 219.491 101.539 219.584 101.296C219.677 101.054 219.853 100.614 219.975 100.318C220.097 100.022 220.297 99.5374 220.419 99.2412C220.541 98.9451 220.728 98.4828 220.833 98.2136C220.939 97.9445 221.09 97.5922 221.168 97.4307C221.481 96.7828 221.181 96.6478 219.429 96.6478C217.783 96.6478 217.707 96.6674 217.489 97.1463C217.363 97.4205 217.261 97.774 217.261 97.932C217.261 98.0897 217.182 98.372 217.085 98.5589C216.987 98.7458 216.803 99.295 216.674 99.7795C216.545 100.264 216.361 100.813 216.264 101C216.166 101.187 216.087 101.561 216.087 101.832C216.087 102.103 215.999 102.324 215.891 102.324C215.783 102.324 215.695 102.588 215.695 102.911C215.695 103.234 215.607 103.498 215.5 103.498C215.392 103.498 215.304 103.763 215.304 104.086C215.304 104.409 215.216 104.673 215.108 104.673C215.001 104.673 214.912 104.897 214.912 105.17C214.912 105.444 214.736 105.857 214.521 106.088L214.13 106.508V105.982C214.13 105.693 214.041 105.456 213.934 105.456C213.826 105.456 213.738 105.191 213.738 104.868C213.738 104.546 213.65 104.281 213.542 104.281C213.435 104.281 213.347 104.017 213.347 103.694C213.347 103.371 213.259 103.107 213.151 103.107C213.043 103.107 212.955 102.843 212.955 102.52C212.955 102.197 212.867 101.933 212.759 101.933C212.652 101.933 212.564 101.668 212.564 101.345C212.564 101.022 212.476 100.758 212.368 100.758C212.26 100.758 212.172 100.494 212.172 100.171C212.172 99.848 212.084 99.5837 211.977 99.5837C211.869 99.5837 211.781 99.3248 211.781 99.0081C211.781 98.6914 211.693 98.378 211.585 98.3115C211.477 98.2449 211.389 97.9316 211.389 97.6149C211.389 97.2982 211.301 97.0392 211.194 97.0392C211.086 97.0392 210.998 96.9242 210.998 96.7834C210.998 96.5791 210.306 96.5446 207.573 96.6124L204.147 96.6971V94.5423C204.147 92.1654 204.152 92.1728 202.826 92.3037ZM62.6814 94.5437C62.92 94.6783 63.4033 95.0659 63.7554 95.4049C64.3749 96.0017 64.3955 96.0723 64.3955 97.6069C64.3955 98.5333 64.314 99.1923 64.1997 99.1923C64.0921 99.1923 64.004 99.2798 64.004 99.3864C64.004 99.7785 63.1479 100.549 62.3634 100.863C61.92 101.041 60.7425 101.235 59.7468 101.295L57.9363 101.403V97.8509V94.299H60.0921C61.4548 94.299 62.4072 94.389 62.6814 94.5437ZM79.4667 94.4947C79.4667 94.6024 79.6051 94.6905 79.7742 94.6905C80.4381 94.6905 81.0326 95.7026 81.0326 96.8333C81.0326 98.0594 80.5867 98.7167 79.3154 99.3653C78.6568 99.7014 78.1514 99.7795 76.6365 99.7795H74.7692V97.0392V94.299H77.118C78.5533 94.299 79.4667 94.3752 79.4667 94.4947ZM119.983 96.4521C119.822 96.5564 119.377 96.6431 118.995 96.6448C118.612 96.6464 118.216 96.7273 118.114 96.8245C118.012 96.9218 117.754 97.0326 117.542 97.0708C117.164 97.1389 117.157 97.3021 117.218 104.381C117.253 108.363 117.322 111.687 117.371 111.768C117.421 111.849 118.238 111.915 119.188 111.915C121.425 111.915 121.498 111.837 121.189 109.801C120.861 107.649 120.883 101.005 121.219 100.669C121.692 100.196 123.105 99.5777 123.99 99.4563C125.087 99.3058 125.92 99.6331 126.496 100.441C126.918 101.033 126.932 101.214 126.964 106.336C126.982 109.243 127.004 111.687 127.013 111.768C127.022 111.849 127.811 111.915 128.767 111.915C130.972 111.915 131.053 111.836 130.765 109.978C130.648 109.226 130.552 106.622 130.552 104.193C130.552 100.046 130.526 99.7182 130.12 98.8476C129.639 97.8147 129.533 97.6869 128.693 97.1181C127.759 96.4859 126.616 96.2056 125.449 96.3225C123.789 96.4887 122.919 96.6752 122.919 96.8648C122.919 96.9608 122.748 97.0392 122.539 97.0392C122.33 97.0392 122.105 97.1273 122.038 97.235C121.972 97.3426 121.702 97.4307 121.439 97.4307C121.066 97.4307 120.962 97.3283 120.962 96.9623C120.962 96.7047 120.822 96.4405 120.652 96.3751C120.275 96.2307 120.337 96.2236 119.983 96.4521ZM136.994 96.4673C136.842 96.5632 136.474 96.6431 136.177 96.6448C135.879 96.6464 135.284 96.7574 134.855 96.8911L134.076 97.1346V104.525V111.915H136.033C137.109 111.915 137.991 111.849 137.992 111.768C137.993 111.687 138.016 108.256 138.041 104.143C138.088 96.7239 138.085 96.6644 137.679 96.4795C137.436 96.3689 137.157 96.364 136.994 96.4673ZM142.101 96.4521C141.831 96.5382 141.154 96.6174 140.595 96.6282C140.036 96.639 139.519 96.7456 139.445 96.8654C139.326 97.0571 141.478 104.032 141.927 104.915C142.023 105.102 142.101 105.427 142.101 105.637C142.101 105.848 142.189 106.074 142.296 106.141C142.404 106.207 142.492 106.478 142.492 106.742C142.492 107.006 142.572 107.376 142.669 107.563C142.766 107.749 142.951 108.299 143.079 108.783C143.208 109.268 143.393 109.817 143.49 110.004C143.587 110.191 143.669 110.543 143.673 110.787C143.686 111.762 144.037 111.915 146.258 111.915C147.675 111.915 148.374 111.838 148.502 111.67C148.605 111.536 148.922 110.677 149.208 109.762C150.908 104.323 151.341 102.969 151.495 102.618C151.589 102.402 151.852 101.654 152.079 100.954C152.307 100.254 152.577 99.5287 152.679 99.3418C152.782 99.1549 152.866 98.8245 152.866 98.6078C152.866 98.391 152.954 98.2136 153.062 98.2136C153.169 98.2136 153.257 97.8613 153.257 97.4307V96.6478H151.504H149.752L149.626 97.3818C149.495 98.1526 149.214 99.1782 148.926 99.9355C148.832 100.183 148.755 100.596 148.755 100.854C148.755 101.111 148.667 101.377 148.56 101.443C148.452 101.51 148.364 101.818 148.364 102.128C148.364 102.438 148.276 102.747 148.168 102.813C148.061 102.88 147.973 103.188 147.973 103.498C147.973 103.809 147.884 104.117 147.777 104.183C147.669 104.25 147.581 104.563 147.581 104.88C147.581 105.197 147.493 105.456 147.385 105.456C147.278 105.456 147.19 105.633 147.19 105.85C147.19 106.323 146.745 107.804 146.602 107.804C146.46 107.804 146.015 106.323 146.015 105.85C146.015 105.633 145.927 105.456 145.819 105.456C145.712 105.456 145.624 105.153 145.624 104.782C145.624 104.412 145.536 104.054 145.428 103.988C145.32 103.921 145.232 103.613 145.232 103.303C145.232 102.992 145.144 102.684 145.037 102.618C144.929 102.551 144.841 102.194 144.841 101.823C144.841 101.453 144.753 101.15 144.645 101.15C144.537 101.15 144.449 100.847 144.449 100.476C144.449 100.106 144.361 99.7482 144.254 99.6816C144.146 99.6151 144.058 99.2577 144.058 98.8871C144.058 98.5166 143.97 98.2136 143.862 98.2136C143.755 98.2136 143.666 97.9494 143.666 97.6264C143.666 97.3002 143.492 96.8652 143.275 96.6478C142.851 96.2236 142.827 96.2195 142.101 96.4521ZM159.227 96.4521C159.161 96.5597 158.938 96.6478 158.732 96.6478C157.726 96.6478 155.338 98.7071 154.722 100.106C154.118 101.478 154.074 101.63 153.848 103.144C153.688 104.221 153.683 104.862 153.831 105.395C153.945 105.805 154.038 106.375 154.039 106.662C154.041 107.587 155.249 109.674 156.233 110.452C157.701 111.614 159.796 112.306 161.843 112.306C163.62 112.306 165.852 111.716 166.643 111.036C167.105 110.639 167.154 110.463 167.154 109.201C167.154 107.872 167.132 107.804 166.702 107.804C166.453 107.804 166.06 107.981 165.829 108.196C165.598 108.411 165.273 108.587 165.107 108.587C164.941 108.587 164.805 108.675 164.805 108.783C164.805 108.891 164.59 108.979 164.328 108.979C164.065 108.979 163.795 109.067 163.729 109.175C163.557 109.452 161.152 109.418 160.317 109.126C159.462 108.826 157.955 107.37 157.955 106.842C157.955 106.631 157.867 106.403 157.759 106.336C157.651 106.27 157.563 105.957 157.563 105.64V105.064H162.521H167.479L167.733 104.591C167.888 104.3 167.936 103.865 167.857 103.465C167.786 103.107 167.676 102.307 167.613 101.688C167.55 101.069 167.421 100.562 167.326 100.562C167.232 100.562 167.154 100.342 167.154 100.073C167.154 99.8039 167.066 99.5837 166.958 99.5837C166.851 99.5837 166.763 99.4516 166.763 99.2901C166.763 99.1287 166.675 98.9966 166.567 98.9966C166.459 98.9966 166.371 98.8764 166.371 98.7296C166.371 98.1385 165.129 97.2612 163.181 96.4767C162.504 96.2039 159.392 96.1845 159.227 96.4521ZM173.204 96.4671C173.052 96.5632 172.685 96.6431 172.387 96.6448C172.089 96.6464 171.494 96.7576 171.063 96.8919L170.281 97.1359L170.332 104.476L170.384 111.817L172.226 111.874C173.239 111.905 174.142 111.855 174.234 111.764C174.325 111.672 174.297 109.885 174.171 107.793C173.902 103.318 174.089 101.545 174.935 100.539C175.385 100.004 175.539 99.9472 176.433 99.9834C177.914 100.043 177.919 100.041 177.919 99.2901C177.919 98.9134 178.007 98.6051 178.115 98.6051C178.224 98.6051 178.311 98.0831 178.311 97.4307V96.2563H177.24C176.259 96.2563 175.265 96.6151 174.476 97.2542C174.213 97.4675 174.005 97.2814 174.005 96.8318C174.005 96.4215 173.581 96.2285 173.204 96.4671ZM182.715 96.5037C181.497 96.9308 181.051 97.1393 181.051 97.2827C181.051 97.3642 180.92 97.4307 180.759 97.4307C180.599 97.4307 180.161 97.849 179.786 98.3604C179.131 99.253 179.103 99.3587 179.099 101.003C179.096 102.017 179.174 102.715 179.289 102.715C179.397 102.715 179.485 102.848 179.485 103.009C179.485 103.171 179.573 103.303 179.681 103.303C179.789 103.303 179.877 103.42 179.877 103.563C179.877 103.706 180.119 103.949 180.415 104.101C180.711 104.254 180.997 104.423 181.051 104.477C181.105 104.531 181.413 104.696 181.736 104.843C182.059 104.99 182.476 105.188 182.663 105.283C182.85 105.378 183.18 105.456 183.397 105.456C183.614 105.456 183.791 105.544 183.791 105.651C183.791 105.759 184.056 105.847 184.378 105.847C184.701 105.847 184.966 105.935 184.966 106.043C184.966 106.151 185.12 106.241 185.308 106.245C185.746 106.253 186.208 106.609 186.506 107.168C186.845 107.804 186.429 108.541 185.401 109.126C184.89 109.416 182.301 109.455 182.128 109.175C182.061 109.067 181.792 108.979 181.529 108.979C181.266 108.979 181.05 108.913 181.049 108.832C181.047 108.613 180.06 108.196 179.544 108.196C179.115 108.196 179.094 108.263 179.094 109.64C179.094 110.57 179.182 111.158 179.343 111.291C179.83 111.695 182.529 112.306 183.827 112.306C185.913 112.306 188.004 111.641 188.962 110.672C190.087 109.534 190.32 108.981 190.333 107.41C190.347 105.742 190.125 105.13 189.162 104.185C188.459 103.495 187.83 103.107 187.415 103.107C187.252 103.107 187.119 103.019 187.119 102.911C187.119 102.804 186.971 102.715 186.79 102.715C186.423 102.715 185.557 102.454 184.062 101.893C182.844 101.435 182.43 100.779 182.904 100.056C183.373 99.3395 183.957 99.1336 185.474 99.1492C186.575 99.1606 187.094 99.2725 187.869 99.6654C189.112 100.295 189.467 100.182 189.467 99.1584C189.467 98.7323 189.56 98.2111 189.673 98.0005C189.975 97.4358 189.465 97.0445 187.692 96.4793C186.835 96.2058 183.518 96.2223 182.715 96.5037ZM195.517 96.4673C195.366 96.5632 194.984 96.6431 194.668 96.6448C194.074 96.648 192.771 97.0379 192.599 97.2639C192.545 97.3348 192.525 100.66 192.555 104.654L192.609 111.915H194.439C195.675 111.915 196.33 111.835 196.454 111.67C196.563 111.525 196.582 110.47 196.5 109.077C196.346 106.465 196.428 99.0005 196.625 97.6184C196.74 96.8067 196.71 96.7108 196.272 96.5114C195.98 96.3785 195.685 96.3612 195.517 96.4673ZM162.957 99.5925C163.505 100.107 164.022 101.159 164.022 101.761C164.022 102.104 163.828 102.128 161.038 102.125C158.233 102.122 157.213 101.976 157.738 101.652C157.857 101.578 157.955 101.383 157.955 101.217C157.955 100.765 158.713 99.7902 159.401 99.3581C160.294 98.7965 162.244 98.9251 162.957 99.5925ZM78.9774 102.911C79.044 103.019 79.3146 103.107 79.5789 103.107C80.5262 103.107 81.6965 104.077 81.9075 105.037C82.1312 106.056 81.8474 107.106 81.1398 107.878C80.7826 108.268 80.3217 108.587 80.1156 108.587C79.9095 108.587 79.6497 108.678 79.5384 108.79C79.4156 108.912 78.4558 108.97 77.1015 108.937L74.8671 108.881L74.8124 106.052C74.7825 104.496 74.8017 103.109 74.8553 102.969C74.9745 102.658 78.7879 102.605 78.9774 102.911ZM97.3761 113.851L96.7889 113.98L96.8557 115.492L96.9226 117.004H95.9259C95.3779 117.004 94.9295 117.092 94.9295 117.2C94.9295 117.307 94.7093 117.395 94.4401 117.395C94.171 117.395 93.9508 117.483 93.9508 117.591C93.9508 117.699 93.851 117.787 93.7289 117.787C93.3129 117.787 92.6022 118.838 92.3732 119.793C92.0704 121.055 92.41 122.3 93.2992 123.19L93.9522 123.843L96.1046 123.831L98.2569 123.819V118.748C98.2569 115.959 98.1909 113.687 98.1101 113.699C98.0293 113.712 97.6991 113.78 97.3761 113.851ZM155.079 113.817L154.454 113.895L154.461 118.875L154.467 123.854H155.232H155.997V121.492C155.997 119.051 156.14 118.57 156.864 118.57C157.034 118.57 157.172 118.482 157.172 118.374C157.172 118.038 157.734 118.159 158.247 118.605C158.721 119.017 158.738 119.113 158.738 121.443V123.854H159.521H160.304V121.42C160.304 120.082 160.215 118.754 160.107 118.47C159.882 117.878 159.449 117.395 159.143 117.395C159.028 117.395 158.933 117.307 158.933 117.2C158.933 117.092 158.586 117.004 158.162 117.004C157.738 117.004 157.336 117.092 157.27 117.2C157.203 117.307 156.978 117.395 156.769 117.395C156.56 117.395 156.389 117.483 156.389 117.591C156.389 117.699 156.301 117.787 156.193 117.787C156.075 117.787 155.997 116.971 155.997 115.732C155.997 114.601 155.932 113.69 155.851 113.708C155.77 113.725 155.423 113.774 155.079 113.817ZM75.8457 114.92C75.5228 115.044 75.0401 115.359 74.7731 115.621C74.3576 116.029 74.2916 116.262 74.3141 117.246C74.3372 118.249 74.4112 118.455 74.8974 118.873C75.2037 119.137 75.5644 119.352 75.6989 119.352C75.8336 119.352 75.9436 119.441 75.9436 119.548C75.9436 119.656 76.0733 119.744 76.2319 119.744C76.3904 119.744 76.897 119.955 77.3573 120.213C78.1003 120.629 78.2011 120.77 78.2538 121.467C78.3017 122.101 78.2274 122.312 77.8676 122.564C77.3241 122.945 76.3031 122.952 75.2648 122.582C74.4394 122.288 74.1912 122.41 74.1849 123.114C74.1793 123.762 75.72 124.155 77.4282 123.942C78.2491 123.839 78.6488 123.662 79.2001 123.157C79.8423 122.569 79.9136 122.403 79.9271 121.462C79.9426 120.391 79.4585 119.372 78.9285 119.359C78.794 119.355 78.6838 119.264 78.6838 119.157C78.6838 119.049 78.5076 118.961 78.2923 118.961C78.077 118.961 77.9009 118.873 77.9009 118.765C77.9009 118.658 77.7247 118.57 77.5094 118.57C77.2941 118.57 77.118 118.482 77.118 118.374C77.118 118.266 76.9819 118.178 76.8156 118.178C76.4699 118.178 75.5521 117.325 75.5521 117.004C75.5521 116.886 75.7684 116.574 76.0326 116.31C76.3998 115.943 76.7196 115.829 77.3912 115.829C77.8741 115.829 78.3237 115.917 78.3902 116.025C78.5419 116.271 79.4667 116.284 79.4667 116.041C79.4667 115.942 79.5178 115.728 79.5804 115.565C79.8647 114.825 77.2714 114.377 75.8457 114.92ZM46.6603 114.995C46.5107 115.098 46.4497 116.505 46.4645 119.499L46.4861 123.854L47.2708 123.854L48.0555 123.854L48.004 119.401L47.9527 114.949L47.4152 114.898C47.1195 114.87 46.7797 114.914 46.6603 114.995ZM50.0864 114.9C50.075 114.927 50.0529 116.953 50.0374 119.401L50.0092 123.854H52.8113H55.6136L55.5516 123.316L55.4897 122.778L53.5392 122.721C52.2815 122.685 51.5353 122.581 51.4381 122.428C51.1864 122.032 51.2594 120.202 51.5359 119.972C51.6759 119.856 52.5346 119.735 53.4443 119.704C55.0812 119.647 55.0988 119.641 55.1595 119.115L55.2208 118.584L53.3001 118.528L51.3794 118.472L51.4203 117.591C51.5076 115.716 51.4602 115.756 53.4398 115.896C55.0552 116.011 55.2006 115.991 55.3954 115.627C55.511 115.411 55.5523 115.148 55.4872 115.042C55.3883 114.882 50.1523 114.744 50.0864 114.9ZM57.0555 115C56.9352 115.089 56.8598 116.822 56.8598 119.499V123.854H59.649H62.4381V123.267V122.68H60.3744H58.3106L58.3681 121.261L58.4257 119.842L60.2362 119.786L62.0467 119.729V119.149V118.57H60.1872H58.3278V117.479C58.3278 115.926 58.5674 115.743 60.3888 115.897C62.0997 116.041 62.4381 115.946 62.4381 115.319V114.851L59.8447 114.854C58.4182 114.855 57.1632 114.921 57.0555 115ZM63.9838 114.9C63.9727 114.927 63.9496 116.952 63.9322 119.401L63.9006 123.854H66.572C69.1496 123.854 69.247 123.839 69.3543 123.429C69.4156 123.195 69.4206 122.931 69.3656 122.842C69.3106 122.753 68.3461 122.68 67.222 122.68H65.1784V121.447C65.1784 120.749 65.2804 120.112 65.4133 119.979C65.5577 119.834 66.2651 119.744 67.2498 119.744C68.799 119.744 68.8546 119.728 68.9442 119.259C68.9953 118.993 68.9908 118.728 68.9345 118.672C68.8781 118.616 68.01 118.57 67.0051 118.57H65.1784V117.479C65.1784 115.926 65.418 115.743 67.2394 115.897C68.9503 116.041 69.2887 115.946 69.2887 115.319V114.851H66.6464C65.1931 114.851 63.995 114.873 63.9838 114.9ZM122.793 115.046C122.633 115.212 122.625 115.482 122.765 115.987C122.875 116.388 122.93 118.249 122.889 120.275L122.819 123.854H124.918C126.689 123.854 127.132 123.79 127.751 123.443C128.786 122.861 128.973 122.534 128.98 121.295C128.987 120.159 128.643 119.602 127.738 119.28C127.38 119.153 127.381 119.139 127.756 118.811C128.881 117.824 128.878 115.959 127.749 115.245C127.175 114.882 123.108 114.719 122.793 115.046ZM82.3048 115.391C81.7771 115.499 81.4438 115.961 81.5636 116.419C81.6636 116.801 81.2303 117.395 80.8507 117.395C80.7355 117.395 80.6411 117.606 80.6411 117.863C80.6411 118.195 80.7789 118.366 81.114 118.45C81.5759 118.566 81.5885 118.623 81.6523 120.884C81.7302 123.643 81.8523 123.854 83.3674 123.854C84.3328 123.854 84.36 123.839 84.36 123.286C84.36 122.812 84.2938 122.734 83.9676 122.819C83.7517 122.876 83.4546 122.822 83.3074 122.7C82.9799 122.428 82.756 120.14 82.9509 119.059C83.0782 118.354 83.1557 118.27 83.726 118.215C84.2592 118.163 84.36 118.074 84.36 117.654C84.36 117.24 84.2882 117.173 83.9429 117.263C83.3694 117.413 82.9899 116.969 82.9899 116.148C82.9899 115.39 82.8842 115.273 82.3048 115.391ZM114.992 115.391C114.464 115.499 114.131 115.961 114.251 116.419C114.351 116.801 113.917 117.395 113.538 117.395C113.423 117.395 113.328 117.625 113.328 117.906C113.328 118.267 113.41 118.384 113.607 118.309C114.117 118.113 114.265 118.646 114.336 120.933C114.419 123.637 114.547 123.854 116.055 123.854C117.016 123.854 117.047 123.837 117.047 123.294C117.047 122.815 116.982 122.747 116.595 122.821C115.816 122.969 115.658 122.514 115.719 120.303L115.775 118.276L116.411 118.215C116.946 118.163 117.047 118.074 117.047 117.654C117.047 117.24 116.975 117.173 116.63 117.263C116.056 117.413 115.677 116.969 115.677 116.148C115.677 115.39 115.571 115.273 114.992 115.391ZM126.246 116.025C126.246 116.133 126.341 116.221 126.456 116.221C126.804 116.221 127.225 116.754 127.225 117.194C127.225 117.422 127.009 117.825 126.745 118.089C126.35 118.484 126.07 118.57 125.179 118.57H124.093V117.434C124.093 116.81 124.199 116.193 124.328 116.064C124.611 115.781 126.246 115.748 126.246 116.025ZM85.7791 117.267L85.1429 117.476V119.034C85.1429 121.342 85.4698 122.942 86.0529 123.49C86.4592 123.872 86.7291 123.941 87.7258 123.918C88.4711 123.901 88.9828 123.793 89.0986 123.628C89.2425 123.423 89.3049 123.419 89.3823 123.61C89.438 123.747 89.8184 123.854 90.2482 123.854H91.0149L91.0119 120.674C91.0102 118.924 90.9303 117.369 90.8342 117.217C90.6884 116.987 90.5596 116.983 90.0542 117.192L89.449 117.443V119.932C89.449 122.41 89.4467 122.422 88.9505 122.648C88.2321 122.976 87.6129 122.929 87.1302 122.51C86.7387 122.171 86.7088 121.962 86.7088 119.574C86.7088 118.161 86.6428 117.016 86.562 117.031C86.4811 117.046 86.129 117.153 85.7791 117.267ZM101.78 117.2C101.78 117.307 101.632 117.395 101.451 117.395C100.876 117.395 99.8744 118.691 99.7484 119.6C99.5937 120.713 99.5935 120.735 99.7317 121.408C99.9729 122.583 100.544 123.463 101.065 123.463C101.225 123.463 101.39 123.566 101.432 123.691C101.54 124.016 104.408 123.996 104.804 123.667C104.971 123.528 105.107 123.159 105.107 122.847C105.107 122.28 105.106 122.28 104.53 122.577C104.212 122.741 103.565 122.876 103.092 122.876C102.157 122.876 101.674 122.56 101.2 121.64C100.795 120.85 101.097 120.729 103.493 120.726L105.499 120.723L105.498 120.184C105.495 118.831 104.645 117.395 103.845 117.395C103.691 117.395 103.51 117.307 103.444 117.2C103.377 117.092 102.976 117.004 102.551 117.004C102.127 117.004 101.78 117.092 101.78 117.2ZM107.652 117.197C107.49 117.291 107.226 117.406 107.065 117.454C106.816 117.527 106.78 118.026 106.83 120.697L106.888 123.854H107.564H108.239V121.492C108.239 119.051 108.382 118.57 109.106 118.57C109.275 118.57 109.414 118.482 109.414 118.374C109.414 118.079 109.954 118.139 110.497 118.494C110.968 118.803 110.979 118.868 110.979 121.332V123.854H111.762H112.545V121.134V118.413L111.841 117.708C111.272 117.14 110.988 117.004 110.373 117.004C109.953 117.004 109.609 117.092 109.609 117.2C109.609 117.307 109.389 117.395 109.12 117.395C108.851 117.395 108.625 117.505 108.617 117.64C108.61 117.775 108.508 117.686 108.392 117.444C108.161 116.965 108.092 116.942 107.652 117.197ZM131.629 117.2C131.562 117.307 131.306 117.395 131.059 117.395H130.61L130.63 120.625L130.65 123.854L131.384 123.854H132.118V121.711C132.118 119.286 132.33 118.57 133.045 118.57C133.658 118.57 134.076 118.139 134.076 117.507C134.076 117.097 133.982 117.004 133.572 117.004C133.295 117.004 132.927 117.146 132.754 117.319C132.464 117.609 132.42 117.609 132.208 117.319C131.941 116.955 131.799 116.925 131.629 117.2ZM136.327 117.2C136.26 117.307 135.991 117.395 135.728 117.395C135.327 117.395 135.25 117.49 135.25 117.982C135.25 118.439 135.337 118.57 135.641 118.57C135.857 118.57 136.033 118.482 136.033 118.374C136.033 118.069 137.785 118.14 138.102 118.458C138.57 118.926 138.43 119.302 137.746 119.413C136 119.698 134.859 120.312 134.859 120.965C134.859 121.155 134.77 121.31 134.663 121.31C134.555 121.31 134.467 121.618 134.467 121.995C134.467 122.372 134.555 122.68 134.663 122.68C134.77 122.68 134.859 122.81 134.859 122.969C134.859 123.128 135.077 123.401 135.343 123.575C135.82 123.888 136.051 123.909 138.577 123.875L139.85 123.857L139.791 121.164C139.729 118.267 139.533 117.395 138.945 117.395C138.743 117.395 138.577 117.307 138.577 117.2C138.577 117.092 138.098 117.004 137.512 117.004C136.927 117.004 136.393 117.092 136.327 117.2ZM142.394 117.2C142.328 117.307 142.046 117.395 141.768 117.395C141.265 117.395 141.263 117.403 141.388 118.598C141.457 119.26 141.513 120.713 141.513 121.828V123.854H142.198H142.884V121.492C142.884 119.051 143.026 118.57 143.75 118.57C143.92 118.57 144.058 118.482 144.058 118.374C144.058 118.05 144.752 118.153 145.202 118.544C145.592 118.882 145.624 119.094 145.624 121.382V123.854H146.407H147.19V121.297C147.19 118.647 147.101 118.267 146.293 117.459C145.966 117.133 145.613 117.004 145.045 117.004C144.61 117.004 144.254 117.092 144.254 117.2C144.254 117.307 144.041 117.395 143.781 117.395C143.52 117.395 143.262 117.505 143.207 117.64C143.145 117.788 143.053 117.711 142.972 117.444C142.83 116.977 142.594 116.877 142.394 117.2ZM150.811 117.2C150.744 117.307 150.547 117.395 150.373 117.395C149.946 117.395 148.755 118.719 148.755 119.194C148.755 119.403 148.663 119.746 148.551 119.957C148.405 120.229 148.418 120.649 148.596 121.415C149.014 123.213 149.911 123.902 151.821 123.891C153.202 123.883 153.649 123.614 153.649 122.789C153.649 122.284 153.648 122.283 152.94 122.58C151.674 123.108 150.727 122.833 150.233 121.791C149.273 119.768 151.003 117.384 152.679 118.423C153.004 118.624 153.106 118.616 153.26 118.374C153.58 117.87 153.47 117.503 152.923 117.248C152.292 116.955 150.98 116.925 150.811 117.2ZM96.768 118.488C96.9208 118.886 96.9175 121.469 96.7633 122.044C96.5033 123.014 94.5188 122.898 94.0027 121.883C93.4584 120.813 94.0176 118.57 94.8287 118.57C94.9917 118.57 95.1252 118.482 95.1252 118.374C95.1252 118.036 96.6349 118.141 96.768 118.488ZM103.702 118.669C104.486 119.571 104.303 119.744 102.563 119.744C101.702 119.744 100.997 119.694 100.997 119.633C100.997 119.469 101.409 118.729 101.66 118.443C102.052 117.994 103.229 118.125 103.702 118.669ZM126.642 120.04C128.235 120.863 127.732 122.471 125.791 122.763C124.271 122.991 124.093 122.852 124.093 121.434C124.093 120.746 124.196 120.111 124.328 119.979C124.656 119.651 125.957 119.686 126.642 120.04ZM138.382 121.499C138.382 122.259 138.299 122.515 138.003 122.673C137.099 123.157 136.033 122.707 136.033 121.841C136.033 121.178 136.871 120.527 137.723 120.527H138.382V121.499Z" fill="white"/>
</svg>
