<svg width="68" height="33" viewBox="0 0 68 33" fill="none" xmlns="http://www.w3.org/2000/svg">
<path fill-rule="evenodd" clip-rule="evenodd" d="M10.0253 0.087645C9.92284 0.142227 9.67727 0.399949 9.44304 0.698683C7.50987 3.16461 5.90005 4.84491 3.62025 6.77625C3.34177 7.01215 3.02516 7.27327 2.91671 7.35651C2.44223 7.72056 1.57894 8.34921 1.04035 8.72299C0.468354 9.1199 0.303494 9.30299 0.304 9.54076C0.304354 9.72182 0.501772 9.95494 0.861063 10.1985C1.06071 10.3338 1.30101 10.5015 1.39509 10.5711C1.48916 10.6407 1.67514 10.7765 1.80835 10.8729C4.54091 12.8495 7.33372 15.5527 9.11018 17.9407C9.23347 18.1064 9.39514 18.3217 9.46947 18.4192C9.5438 18.5167 9.6438 18.6723 9.69175 18.765C9.82648 19.0256 10.3141 19.1703 10.5792 19.0284C10.6296 19.0015 10.8385 18.7566 11.0434 18.4841C13.0482 15.8195 15.6393 13.2409 18.3406 11.2222C19.3021 10.5037 19.4588 10.3939 19.7439 10.2386C20.3475 9.91018 20.4599 9.50582 20.0632 9.09008C19.9902 9.01352 19.911 8.95084 19.8874 8.95084C19.8288 8.95084 18.9867 8.36709 18.2842 7.83954C17.9671 7.60137 17.6481 7.36208 17.5753 7.30775C17.5026 7.25342 17.2835 7.07453 17.0886 6.91018C16.8937 6.74587 16.6772 6.56435 16.6076 6.50689C15.6073 5.68111 13.4262 3.50648 12.5585 2.46982C11.6105 1.33711 11.5238 1.22901 11.1407 0.702177C10.6392 0.0126576 10.4067 -0.115444 10.0253 0.087645ZM11.038 2.66678C11.7098 3.01104 13.6939 4.67286 14.8608 5.86871C16.3247 7.36891 17.4751 8.7921 17.6503 9.31949C17.7287 9.5556 17.7289 9.59347 17.653 9.83225C17.4597 10.4397 16.5886 11.5089 14.9655 13.1305C13.7848 14.3101 13.006 15.0053 12.0506 15.7323C11.2048 16.3759 10.9223 16.5506 10.6105 16.6231C10.2576 16.7052 10.0846 16.6659 9.60997 16.3958C8.41291 15.7147 5.60724 13.2234 4.19078 11.5837C3.70192 11.0179 3.05023 10.1414 2.96289 9.93246C2.7523 9.4284 2.91803 9.076 3.94749 7.83889C4.40982 7.28329 5.96932 5.67686 6.6076 5.09873C7.90567 3.92294 9.45985 2.69909 9.88056 2.52147C9.94623 2.49372 10.1595 2.47716 10.3544 2.48461C10.6397 2.49549 10.7731 2.53104 11.038 2.66678ZM22.8186 2.75676C22.8 2.77529 22.7848 6.13605 22.7848 10.2251V17.6597H24.8608H26.9367V10.1913V2.72299H24.8945C23.7713 2.72299 22.8371 2.73818 22.8186 2.75676ZM29.1139 10.1913V17.6597H34.8101H40.5063V16.217V14.7743L36.8852 14.7613L33.2641 14.7483L33.2523 13.1919C33.2428 11.9342 33.2535 11.6305 33.3079 11.6096C33.345 11.5954 34.8431 11.5837 36.6371 11.5837H39.8987V10.1411V8.69838L36.5807 8.68537L33.2626 8.67235V7.15337V5.63438L36.8845 5.62137L40.5063 5.6084V4.16567V2.72299H34.8101H29.1139V10.1913ZM42.8354 10.1913V17.6597H48.5316H54.2278V16.2167V14.7736H50.6076H46.9873V13.1787V11.5837H50.3038H53.6203V10.1407V8.69767H50.3038H46.9873V7.15337V5.60906H50.6076H54.2278V4.16603V2.72299H48.5316H42.8354V10.1913ZM56.557 10.1911V17.6597H62.254H67.9509L67.9375 16.2293L67.9241 14.7989L64.3038 14.7736L60.6835 14.7483V13.1787V11.6091L64.0127 11.5961L67.3418 11.583V10.1404V8.69767H63.9992H60.6568L60.6701 7.16603L60.6835 5.63438L64.3173 5.62137L67.9509 5.6084L67.9375 4.17833L67.9241 2.7483L62.2405 2.73544L56.557 2.72253V10.1911ZM9.92005 2.94876C9.59367 3.06896 8.50967 3.88927 7.43073 4.83256C5.65843 6.38208 3.8761 8.30506 3.48628 9.0882C3.35058 9.36081 3.33443 9.43514 3.36501 9.64516C3.4041 9.91372 3.43656 9.97327 3.84182 10.5205C4.73711 11.7292 6.05311 13.0608 8.07013 14.7989C8.56628 15.2265 9.28785 15.7504 9.70451 15.9857C10.3256 16.3365 10.5448 16.3078 11.3418 15.7717C13.2926 14.4597 16.4143 11.3551 17.1059 10.0394C17.3014 9.66759 17.307 9.46415 17.1317 9.11752C16.9853 8.82825 16.0705 7.6602 15.4546 6.97615C14.9728 6.44111 13.6647 5.13828 13.3702 4.9002C13.2497 4.80273 12.9652 4.56349 12.7381 4.36856C11.1731 3.02521 10.5563 2.71443 9.92005 2.94876ZM10.4771 4.86223C10.6956 5.46223 10.9977 6.25914 11.2468 6.89286C11.3547 7.16734 11.443 7.41134 11.443 7.43504C11.443 7.45878 11.2664 7.48486 11.0506 7.49301L10.6582 7.5078L10.6599 7.78628C10.6609 7.93944 10.681 8.592 10.7047 9.2364L10.7476 10.408L10.5336 10.4442C10.4159 10.4641 10.1965 10.4649 10.0459 10.4461L9.77215 10.4119L9.77656 10.0991C9.77899 9.92704 9.80749 9.27737 9.83985 8.65539C9.87225 8.03337 9.88922 7.51504 9.87762 7.50349C9.86603 7.49195 9.71605 7.48248 9.5443 7.48248C9.37256 7.48248 9.2203 7.47073 9.20592 7.45635C9.19154 7.44197 9.26451 7.19701 9.36805 6.91205C9.47165 6.62704 9.71311 5.94405 9.90476 5.39428C10.0964 4.84451 10.2652 4.39453 10.2799 4.39428C10.2946 4.39408 10.3833 4.60461 10.4771 4.86223ZM8.53463 8.33058C8.79706 8.49068 9.01195 8.63342 9.0122 8.6477C9.01246 8.66203 8.90446 8.69975 8.77215 8.73154C8.2357 8.86056 7.9279 9.0119 7.65823 9.27939C7.50425 9.4321 7.39241 9.58815 7.39241 9.65023C7.39241 9.80167 7.66122 10.0894 7.91954 10.2145C8.03995 10.2728 8.39777 10.382 8.71479 10.4572C9.25175 10.5847 9.36906 10.594 10.4304 10.5943C11.555 10.5946 11.578 10.5924 12.2239 10.4269C13.3783 10.131 13.8166 9.7078 13.4365 9.25605C13.3632 9.16896 13.1878 9.03929 13.0468 8.9678C12.7926 8.83894 12.5708 8.828 12.2261 8.92724C12.1365 8.95306 12.1082 8.91225 12.0073 8.6121C11.9436 8.42248 11.8787 8.23534 11.863 8.1963C11.8413 8.14228 11.8633 8.13367 11.9552 8.16025C12.0539 8.18876 13.0352 8.41797 13.5084 8.52299C13.643 8.55286 13.6104 8.64704 13.4654 8.64704C13.3033 8.64704 13.3526 8.71858 13.6238 8.87691C13.8895 9.032 14.089 9.25053 14.1776 9.48344C14.2171 9.58739 14.2074 9.66602 14.1347 9.83033C13.9178 10.3207 13.1958 10.67 11.9156 10.9041C11.2322 11.029 9.58841 11.057 8.83544 10.9565C7.79215 10.8172 6.73792 10.4641 6.26866 10.0967C6.19291 10.0373 6.08435 9.89615 6.02744 9.78289C5.92977 9.58846 5.9283 9.56253 6.00091 9.31803C6.05889 9.12278 6.13676 9.00714 6.31737 8.8481C6.64284 8.56147 7.68876 8.05818 7.99078 8.04284C8.02749 8.04096 8.2722 8.17048 8.53463 8.33058ZM10.8057 11.3432C10.8311 11.4701 10.9378 13.6022 10.9371 13.9704L10.9367 14.2052L10.7108 14.239C10.5866 14.2577 10.2873 14.2569 10.0457 14.2373L9.60648 14.2016L9.63716 13.7914C9.65408 13.5658 9.68349 12.8971 9.70253 12.3053L9.73722 11.2293H10.2601C10.7617 11.2293 10.7838 11.2339 10.8057 11.3432ZM14.1201 16.7992C13.7089 17.0165 13.515 17.437 13.6166 17.891C13.6898 18.2182 13.7737 18.3355 14.0502 18.4975C14.3459 18.6708 14.8423 18.6816 15.1267 18.5208C15.8108 18.134 15.7867 17.1551 15.0843 16.7967C14.8276 16.6658 14.3703 16.667 14.1201 16.7992ZM14.9055 16.9704C15.2682 17.122 15.4452 17.6484 15.2559 18.0131C15.1093 18.2958 14.8623 18.4324 14.5439 18.4068C14.1126 18.3722 13.843 18.045 13.8851 17.6071C13.9369 17.0671 14.4182 16.7668 14.9055 16.9704ZM14.2278 17.685C14.2278 18.1829 14.2343 18.2167 14.3291 18.2167C14.4154 18.2167 14.4304 18.1829 14.4304 17.9888C14.4304 17.8248 14.4507 17.761 14.5029 17.761C14.5428 17.761 14.5893 17.8047 14.6063 17.8581C14.659 18.0243 14.8383 18.2167 14.9404 18.2167C15.0635 18.2167 15.0625 18.1982 14.9268 17.9568L14.8157 17.759L14.9268 17.6812C15.0645 17.5848 15.0774 17.3211 14.9494 17.2238C14.8983 17.1851 14.7268 17.1559 14.5443 17.155L14.2278 17.1534V17.685ZM14.7707 17.3621C14.8685 17.4598 14.7837 17.5584 14.6022 17.5584C14.4527 17.5584 14.4304 17.542 14.4304 17.4318C14.4304 17.327 14.4547 17.3053 14.5722 17.3053C14.6501 17.3053 14.7395 17.3308 14.7707 17.3621ZM0 20.9255V21.5078H34H68V20.9255V20.3432H34H0V20.9255ZM35.1139 23.1616C34.665 23.2032 34.6835 23.1817 34.6835 23.6607C34.6835 23.9677 34.7016 24.0915 34.7468 24.0951C35.0401 24.1186 35.6776 24.0702 35.7091 24.0221C35.7302 23.9898 35.7416 23.7812 35.7345 23.5584L35.7215 23.1534L35.519 23.1481C35.4076 23.1452 35.2253 23.1512 35.1139 23.1616ZM50.2532 23.1627C49.8054 23.2017 49.8228 23.1816 49.8228 23.6607C49.8228 23.9676 49.8408 24.0915 49.8861 24.0953C50.1383 24.1162 50.7712 24.0711 50.8228 24.0286C50.8635 23.995 50.8861 23.8362 50.8861 23.583C50.8861 23.0961 50.9014 23.1062 50.2532 23.1627ZM11.9611 23.6851C11.9121 23.7636 11.9097 23.8921 11.9508 24.2547C11.9801 24.5126 12.0021 25.6442 11.9998 26.7736C11.9976 27.9015 11.9967 28.8528 11.9979 28.8875C12.001 28.9796 12.9287 28.9761 13.0053 28.8837C13.0458 28.8349 13.0458 28.5759 13.0054 27.9344C12.9735 27.4295 12.9602 26.3374 12.9742 25.3812C12.9877 24.4622 12.9886 23.6819 12.9762 23.647C12.9603 23.6026 12.8149 23.5837 12.489 23.5837C12.079 23.5837 12.0169 23.5957 11.9611 23.6851ZM13.9747 23.6555C13.9747 23.6949 13.9495 23.7356 13.9187 23.7459C13.8778 23.7595 13.8777 23.8188 13.9184 23.9653C13.9553 24.0982 13.9742 24.9738 13.9744 26.5584L13.9747 28.9508H14.4768C14.8322 28.9508 14.9858 28.9324 15.0023 28.8875C15.0152 28.8528 15.0137 28.4099 14.9989 27.9035L14.972 26.9827L15.5239 26.9584C16.1573 26.9305 16.4948 26.8839 16.5349 26.8189C16.5503 26.794 16.6071 26.7736 16.6612 26.7736C16.7153 26.7736 16.7595 26.7508 16.7595 26.723C16.7595 26.6951 16.7951 26.6724 16.8387 26.6724C16.9302 26.6724 17.4684 26.1596 17.4684 26.0724C17.4684 26.0404 17.4911 26.0141 17.519 26.0141C17.5468 26.0141 17.5696 25.9699 17.5696 25.9158C17.5696 25.8618 17.5924 25.8035 17.6203 25.7863C17.6484 25.7689 17.6709 25.5357 17.6709 25.2612C17.6709 24.864 17.65 24.7233 17.5643 24.5426C17.4155 24.229 16.9772 23.822 16.7023 23.7423C16.5806 23.707 16.411 23.6569 16.3255 23.6309C16.24 23.605 15.6761 23.5837 15.0724 23.5837C14.1591 23.5837 13.9747 23.5958 13.9747 23.6555ZM18.376 23.647C18.3739 23.6819 18.374 24.861 18.3762 26.2673C18.3784 27.6736 18.3801 28.8528 18.3799 28.8875C18.3796 28.9834 20.6992 28.9757 21.0187 28.8788C21.3146 28.7889 21.6088 28.6359 21.7745 28.4856C21.9497 28.3267 22.1266 28.0667 22.1266 27.9684C22.1266 27.9239 22.1494 27.8875 22.1772 27.8875C22.2072 27.8875 22.2278 27.7024 22.2278 27.4334C22.2278 27.066 22.2075 26.9431 22.1216 26.7901C21.9854 26.5475 21.6963 26.283 21.4832 26.206C21.3915 26.1728 21.3165 26.1247 21.3165 26.0989C21.3165 26.0733 21.4177 25.963 21.5415 25.8541C21.8608 25.5731 21.929 25.4084 21.9291 24.9189C21.9291 24.5907 21.9069 24.4677 21.8196 24.3123C21.6328 23.9797 21.2996 23.7611 20.7968 23.6412C20.447 23.5579 18.381 23.5628 18.376 23.647ZM25.2334 23.6459C25.1779 23.7356 25.2135 27.7574 25.2699 27.7778C25.2955 27.7871 25.3165 27.8612 25.3165 27.9424C25.3165 28.0236 25.3392 28.0901 25.3671 28.0901C25.3949 28.0901 25.4177 28.1224 25.4177 28.162C25.4177 28.2754 25.8625 28.6907 26.1203 28.818C26.4889 29.0001 26.8582 29.063 27.4177 29.0391C27.9462 29.0166 28.1578 28.9742 28.4617 28.83C28.794 28.6724 29.2152 28.2065 29.2152 27.9967C29.2152 27.94 29.2346 27.8815 29.2584 27.8668C29.2822 27.8521 29.3187 27.697 29.3394 27.522C29.3873 27.1184 29.3889 23.7909 29.3412 23.6724C29.3119 23.5994 29.2409 23.5837 28.9391 23.5837C28.4315 23.5837 28.3723 23.6499 28.4542 24.1251C28.5191 24.5015 28.5018 27.2782 28.4328 27.5688C28.3829 27.7789 28.0251 28.1489 27.7939 28.2295C27.5777 28.305 27.0062 28.3135 26.962 28.242C26.9448 28.2141 26.8865 28.1913 26.8325 28.1913C26.7784 28.1913 26.7342 28.1686 26.7342 28.1407C26.7342 28.1129 26.7 28.0901 26.6582 28.0901C26.6165 28.0901 26.5823 28.0728 26.5823 28.0516C26.5823 28.0304 26.5283 27.9549 26.4623 27.8837C26.3964 27.8126 26.325 27.6647 26.3038 27.5551C26.2826 27.4456 26.2561 26.5071 26.2448 25.4698L26.2243 23.5837H25.7481C25.4262 23.5837 25.2593 23.6039 25.2334 23.6459ZM52.4684 23.8777C52.3779 23.8866 52.3038 23.9153 52.3038 23.9414C52.3038 23.9675 52.2297 23.9895 52.1392 23.9904C51.8447 23.9933 51.7975 24.0726 51.7975 24.564V25.0015H51.5497C51.2688 25.0015 51.2405 25.0362 51.2405 25.3812C51.2405 25.7262 51.2688 25.761 51.5497 25.761H51.7975V27.0774C51.7975 27.9213 51.8156 28.3939 51.8481 28.3939C51.876 28.3939 51.8987 28.4278 51.8987 28.4693C51.8987 28.584 52.0535 28.7447 52.2785 28.8635C52.4426 28.9502 52.5692 28.9703 52.9461 28.9696C53.5324 28.9685 53.5696 28.9413 53.5696 28.5148V28.1926L53.236 28.1976C53.0525 28.2003 52.8779 28.1781 52.8481 28.1483C52.7827 28.0829 52.7303 26.4076 52.7809 26.0023L52.8157 25.7243L53.1654 25.7493C53.5043 25.7735 53.517 25.7702 53.5757 25.6413C53.6309 25.5202 53.6414 25.5162 53.6935 25.5966C53.7249 25.6452 53.7988 25.8103 53.8579 25.9635C53.9169 26.1167 54.0319 26.4129 54.1133 26.6217C54.1948 26.8306 54.2931 27.1097 54.3316 27.242C54.3703 27.3742 54.4196 27.4825 54.4414 27.4825C54.4632 27.4825 54.481 27.5284 54.481 27.5845C54.481 27.6405 54.5038 27.7316 54.5316 27.787C54.5595 27.8423 54.6051 27.9328 54.6329 27.9881C54.6608 28.0434 54.6835 28.1346 54.6835 28.1906C54.6835 28.2467 54.7063 28.2926 54.7342 28.2926C54.762 28.2926 54.7848 28.3482 54.7848 28.4162C54.7848 28.4842 54.8076 28.5539 54.8354 28.5711C54.8633 28.5883 54.8861 28.6561 54.8861 28.7218C54.8861 28.7874 54.9146 28.8514 54.9494 28.8641C55 28.8824 55 28.9084 54.9494 28.9942C54.9146 29.0531 54.8861 29.1358 54.8861 29.178C54.8861 29.2202 54.8633 29.2546 54.8354 29.2546C54.8076 29.2546 54.7848 29.2891 54.7848 29.3313C54.7848 29.3734 54.762 29.4532 54.7342 29.5085C54.7063 29.5638 54.6608 29.6543 54.6329 29.7096C54.6051 29.765 54.5823 29.8447 54.5823 29.8868C54.5823 29.929 54.5595 29.9635 54.5316 29.9635C54.5038 29.9635 54.481 30.0091 54.481 30.0648C54.481 30.1205 54.4582 30.166 54.4304 30.166C54.4025 30.166 54.3797 30.2013 54.3797 30.2445C54.3797 30.2876 54.3457 30.3887 54.3042 30.4691C54.1713 30.726 54.2361 30.7736 54.7179 30.7736C55.1588 30.7736 55.2911 30.7219 55.2911 30.5494C55.2911 30.5056 55.3139 30.4698 55.3418 30.4698C55.3696 30.4698 55.3924 30.3787 55.3924 30.2673C55.3924 30.1559 55.4152 30.0648 55.443 30.0648C55.4709 30.0648 55.4937 29.9978 55.4937 29.9158C55.4937 29.8339 55.5165 29.7529 55.5443 29.7356C55.5722 29.7184 55.5949 29.6598 55.5949 29.6054C55.5949 29.5509 55.6155 29.4668 55.6407 29.4185C55.6658 29.3701 55.7154 29.2281 55.751 29.1027C55.7866 28.9774 55.8313 28.8521 55.8504 28.8243C55.8695 28.7964 55.8971 28.7167 55.9117 28.647C55.9362 28.531 56.1355 27.9774 56.4043 27.2799C56.4632 27.1268 56.5457 26.8989 56.5874 26.7736C56.6292 26.6483 56.685 26.4945 56.7114 26.4318C56.7379 26.3692 56.7792 26.2666 56.8033 26.204C56.8275 26.1414 56.8731 26.0274 56.9046 25.9508C56.9362 25.8742 56.9879 25.749 57.0194 25.6724C57.051 25.5957 57.0992 25.4762 57.1266 25.4065C57.154 25.3369 57.1929 25.2458 57.2131 25.204C57.2941 25.0364 57.2166 25.0015 56.7634 25.0015C56.3375 25.0015 56.3177 25.0065 56.2613 25.1304C56.229 25.2014 56.2025 25.2928 56.2025 25.3337C56.2025 25.3745 56.182 25.4475 56.1568 25.4958C56.1317 25.5442 56.0839 25.6863 56.0506 25.8116C56.0174 25.9369 55.9696 26.079 55.9445 26.1273C55.9193 26.1757 55.8987 26.2726 55.8987 26.3425C55.8987 26.4126 55.876 26.4698 55.8481 26.4698C55.8203 26.4698 55.7975 26.5382 55.7975 26.6217C55.7975 26.7053 55.7747 26.7736 55.7468 26.7736C55.719 26.7736 55.6962 26.842 55.6962 26.9255C55.6962 27.0091 55.6734 27.0774 55.6456 27.0774C55.6177 27.0774 55.5949 27.1353 55.5949 27.2061C55.5949 27.2769 55.5494 27.3837 55.4937 27.4435L55.3924 27.5522V27.4161C55.3924 27.3412 55.3696 27.2799 55.3418 27.2799C55.3139 27.2799 55.2911 27.2116 55.2911 27.1281C55.2911 27.0445 55.2684 26.9762 55.2405 26.9762C55.2127 26.9762 55.1899 26.9078 55.1899 26.8243C55.1899 26.7407 55.1671 26.6724 55.1392 26.6724C55.1114 26.6724 55.0886 26.604 55.0886 26.5205C55.0886 26.4369 55.0658 26.3686 55.038 26.3686C55.0101 26.3686 54.9873 26.3002 54.9873 26.2167C54.9873 26.1331 54.9646 26.0648 54.9367 26.0648C54.9089 26.0648 54.8861 25.9964 54.8861 25.9129C54.8861 25.8293 54.8633 25.761 54.8354 25.761C54.8076 25.761 54.7848 25.694 54.7848 25.6121C54.7848 25.5301 54.762 25.4491 54.7342 25.4318C54.7063 25.4146 54.6835 25.3336 54.6835 25.2516C54.6835 25.1697 54.6608 25.1027 54.6329 25.1027C54.6051 25.1027 54.5823 25.073 54.5823 25.0366C54.5823 24.9837 54.4032 24.9748 53.6962 24.9923L52.8101 25.0142V24.4568C52.8101 23.8419 52.8113 23.8438 52.4684 23.8777ZM16.2148 24.4572C16.2766 24.492 16.4016 24.5923 16.4927 24.6799C16.6529 24.8343 16.6582 24.8526 16.6582 25.2496C16.6582 25.4892 16.6372 25.6597 16.6076 25.6597C16.5797 25.6597 16.557 25.6823 16.557 25.7099C16.557 25.8113 16.3355 26.0107 16.1326 26.092C16.0179 26.1379 15.7133 26.1881 15.4557 26.2035L14.9873 26.2315V25.3127V24.3939H15.545C15.8975 24.3939 16.1439 24.4172 16.2148 24.4572ZM20.557 24.4445C20.557 24.4724 20.5928 24.4951 20.6365 24.4951C20.8083 24.4951 20.962 24.757 20.962 25.0495C20.962 25.3666 20.8467 25.5367 20.5178 25.7045C20.3474 25.7914 20.2167 25.8116 19.8248 25.8116H19.3418V25.1027V24.3939H19.9494C20.3207 24.3939 20.557 24.4136 20.557 24.4445ZM31.038 24.9508C30.9962 24.9778 30.8812 25.0003 30.7823 25.0007C30.6834 25.0011 30.5809 25.022 30.5544 25.0472C30.528 25.0724 30.4614 25.101 30.4064 25.1109C30.3088 25.1285 30.3069 25.1707 30.3227 27.0019C30.3317 28.032 30.3495 28.8919 30.3624 28.9129C30.3752 28.9338 30.5866 28.9508 30.8323 28.9508C31.411 28.9508 31.43 28.9308 31.3498 28.4039C31.2651 27.8474 31.2708 26.1285 31.3576 26.0417C31.4799 25.9193 31.8455 25.7594 32.0744 25.728C32.3583 25.6891 32.5737 25.7737 32.7228 25.9828C32.832 26.1358 32.8357 26.1828 32.844 27.5078C32.8486 28.2597 32.8543 28.8919 32.8566 28.9129C32.8589 28.9338 33.063 28.9508 33.3103 28.9508C33.8806 28.9508 33.9016 28.9304 33.827 28.4498C33.7969 28.2552 33.7722 27.5818 33.7722 26.9533C33.7722 25.8806 33.7653 25.7957 33.6603 25.5705C33.5357 25.3033 33.5085 25.2703 33.2911 25.1231C33.0495 24.9596 32.7538 24.8871 32.4518 24.9173C32.0224 24.9603 31.7975 25.0086 31.7975 25.0576C31.7975 25.0824 31.7533 25.1027 31.6992 25.1027C31.6451 25.1027 31.5868 25.1255 31.5696 25.1534C31.5524 25.1812 31.4827 25.204 31.4147 25.204C31.3181 25.204 31.2911 25.1775 31.2911 25.0828C31.2911 25.0162 31.2551 24.9478 31.211 24.9309C31.1136 24.8936 31.1294 24.8917 31.038 24.9508ZM35.4384 24.9548C35.3992 24.9796 35.3041 25.0003 35.227 25.0007C35.15 25.0011 34.9963 25.0298 34.8853 25.0644L34.6835 25.1274V27.0391V28.9508H35.1899C35.4684 28.9508 35.6965 28.9338 35.6968 28.9129C35.697 28.8919 35.7027 28.0044 35.7094 26.9405C35.7214 25.0212 35.7207 25.0058 35.6156 24.9579C35.5528 24.9293 35.4806 24.9281 35.4384 24.9548ZM36.7595 24.9508C36.6899 24.9731 36.5146 24.9936 36.3701 24.9964C36.2255 24.9992 36.0916 25.0268 36.0725 25.0578C36.0418 25.1073 36.5983 26.9115 36.7147 27.14C36.7393 27.1884 36.7595 27.2725 36.7595 27.3269C36.7595 27.3813 36.7823 27.4399 36.8101 27.4572C36.838 27.4744 36.8608 27.5444 36.8608 27.6128C36.8608 27.6811 36.8813 27.7766 36.9065 27.825C36.9316 27.8733 36.9794 28.0154 37.0127 28.1407C37.0459 28.266 37.0937 28.4081 37.1188 28.4565C37.144 28.5048 37.1653 28.596 37.1662 28.659C37.1697 28.9113 37.2604 28.9508 37.8348 28.9508C38.2014 28.9508 38.3823 28.9311 38.4155 28.8875C38.442 28.8528 38.5242 28.6306 38.5981 28.3939C39.0379 26.9869 39.15 26.6367 39.1897 26.5458C39.214 26.4901 39.282 26.2964 39.3409 26.1154C39.3997 25.9344 39.4695 25.7467 39.4961 25.6984C39.5226 25.65 39.5443 25.5646 39.5443 25.5085C39.5443 25.4524 39.5671 25.4065 39.5949 25.4065C39.6228 25.4065 39.6456 25.3154 39.6456 25.204V25.0015H39.1922H38.7388L38.7063 25.1913C38.6723 25.3907 38.5995 25.6561 38.5252 25.8519C38.5009 25.9159 38.481 26.0228 38.481 26.0895C38.481 26.1562 38.4582 26.2248 38.4304 26.242C38.4025 26.2592 38.3797 26.3389 38.3797 26.4192C38.3797 26.4994 38.357 26.5792 38.3291 26.5964C38.3013 26.6136 38.2785 26.6934 38.2785 26.7736C38.2785 26.8539 38.2557 26.9336 38.2278 26.9508C38.2 26.9681 38.1772 27.0491 38.1772 27.131C38.1772 27.213 38.1544 27.2799 38.1266 27.2799C38.0987 27.2799 38.076 27.3259 38.076 27.382C38.076 27.5044 37.9608 27.8875 37.9241 27.8875C37.8873 27.8875 37.7722 27.5044 37.7722 27.382C37.7722 27.3259 37.7494 27.2799 37.7215 27.2799C37.6937 27.2799 37.6709 27.2016 37.6709 27.1057C37.6709 27.0099 37.6481 26.9174 37.6203 26.9002C37.5924 26.883 37.5696 26.8032 37.5696 26.723C37.5696 26.6427 37.5468 26.563 37.519 26.5458C37.4911 26.5286 37.4684 26.4361 37.4684 26.3403C37.4684 26.2444 37.4456 26.166 37.4177 26.166C37.3899 26.166 37.3671 26.0876 37.3671 25.9918C37.3671 25.896 37.3443 25.8035 37.3165 25.7863C37.2886 25.7691 37.2658 25.6766 37.2658 25.5808C37.2658 25.4849 37.243 25.4065 37.2152 25.4065C37.1873 25.4065 37.1646 25.3382 37.1646 25.2546C37.1646 25.1702 37.1195 25.0577 37.0633 25.0015C36.9536 24.8917 36.9473 24.8907 36.7595 24.9508ZM41.1899 24.9508C41.1727 24.9787 41.115 25.0015 41.0618 25.0015C40.8016 25.0015 40.1839 25.5342 40.0245 25.896C39.8682 26.251 39.8569 26.2903 39.7985 26.682C39.757 26.9606 39.7557 27.1264 39.794 27.2643C39.8234 27.3704 39.8476 27.5179 39.8478 27.5921C39.8483 27.8312 40.1608 28.3711 40.4153 28.5725C40.795 28.8729 41.3372 29.0521 41.8665 29.0521C42.3264 29.0521 42.9037 28.8993 43.1084 28.7235C43.2278 28.6208 43.2405 28.5753 43.2405 28.2488C43.2405 27.9051 43.2348 27.8875 43.1235 27.8875C43.0591 27.8875 42.9575 27.9331 42.8977 27.9888C42.838 28.0445 42.7539 28.0901 42.711 28.0901C42.6681 28.0901 42.6329 28.1129 42.6329 28.1407C42.6329 28.1686 42.5773 28.1913 42.5093 28.1913C42.4413 28.1913 42.3716 28.2141 42.3544 28.242C42.3101 28.3138 41.6877 28.3049 41.4719 28.2293C41.2507 28.1518 40.8608 27.775 40.8608 27.6387C40.8608 27.5839 40.838 27.525 40.8101 27.5078C40.7823 27.4906 40.7595 27.4095 40.7595 27.3276V27.1787H42.0421H43.3247L43.3902 27.0562C43.4304 26.9811 43.4428 26.8685 43.4223 26.7651C43.4039 26.6723 43.3755 26.4654 43.3592 26.3053C43.3429 26.1451 43.3096 26.0141 43.2851 26.0141C43.2606 26.0141 43.2405 25.9572 43.2405 25.8875C43.2405 25.8179 43.2177 25.761 43.1899 25.761C43.162 25.761 43.1392 25.7268 43.1392 25.685C43.1392 25.6432 43.1165 25.6091 43.0886 25.6091C43.0608 25.6091 43.038 25.578 43.038 25.54C43.038 25.3871 42.7167 25.1602 42.2128 24.9572C42.0375 24.8866 41.2327 24.8816 41.1899 24.9508ZM44.8055 24.9547C44.7663 24.9796 44.6711 25.0003 44.5941 25.0007C44.5171 25.0011 44.363 25.0299 44.2517 25.0646L44.0494 25.1277L44.0627 27.0266L44.076 28.9255L44.5524 28.9402C44.8145 28.9483 45.0483 28.9355 45.072 28.9118C45.0956 28.8882 45.0884 28.4258 45.0557 27.8845C44.9861 26.727 45.0344 26.2683 45.2534 26.0081C45.3697 25.8698 45.4097 25.855 45.6409 25.8644C46.0239 25.8798 46.0253 25.8792 46.0253 25.685C46.0253 25.5875 46.0481 25.5078 46.076 25.5078C46.1041 25.5078 46.1266 25.3728 46.1266 25.204V24.9002H45.8496C45.5957 24.9002 45.3386 24.993 45.1346 25.1583C45.0664 25.2135 45.0127 25.1654 45.0127 25.0491C45.0127 24.9429 44.903 24.893 44.8055 24.9547ZM47.2658 24.9642C46.9507 25.0747 46.8354 25.1286 46.8354 25.1657C46.8354 25.1868 46.8015 25.204 46.76 25.204C46.7185 25.204 46.6051 25.3122 46.5081 25.4445C46.3387 25.6754 46.3316 25.7027 46.3304 26.1281C46.3296 26.3905 46.3498 26.5711 46.3797 26.5711C46.4076 26.5711 46.4304 26.6053 46.4304 26.647C46.4304 26.6888 46.4532 26.723 46.481 26.723C46.5089 26.723 46.5316 26.7533 46.5316 26.7904C46.5316 26.8274 46.5943 26.8901 46.6709 26.9295C46.7475 26.969 46.8215 27.0128 46.8354 27.0268C46.8494 27.0408 46.9291 27.0833 47.0127 27.1214C47.0962 27.1594 47.2041 27.2106 47.2525 27.2352C47.3008 27.2598 47.3863 27.2799 47.4423 27.2799C47.4984 27.2799 47.5443 27.3027 47.5443 27.3306C47.5443 27.3584 47.6127 27.3812 47.6962 27.3812C47.7797 27.3812 47.8481 27.404 47.8481 27.4318C47.8481 27.4597 47.888 27.4832 47.9367 27.4841C48.0501 27.4861 48.1696 27.5782 48.2467 27.723C48.3343 27.8875 48.2267 28.078 47.9608 28.2293C47.8285 28.3046 47.1588 28.3146 47.1139 28.242C47.0967 28.2141 47.027 28.1913 46.959 28.1913C46.891 28.1913 46.8352 28.1743 46.835 28.1534C46.8345 28.0968 46.579 27.9888 46.4456 27.9888C46.3346 27.9888 46.3291 28.0063 46.3291 28.3624C46.3291 28.6029 46.3521 28.7549 46.3935 28.7894C46.5195 28.8939 47.2179 29.0521 47.5535 29.0521C48.0931 29.0521 48.6341 28.8799 48.882 28.6292C49.173 28.3349 49.2331 28.1919 49.2365 27.7854C49.2401 27.354 49.1827 27.1958 48.9335 26.9512C48.7518 26.7729 48.589 26.6724 48.4817 26.6724C48.4395 26.6724 48.4051 26.6496 48.4051 26.6217C48.4051 26.5939 48.3668 26.5711 48.3201 26.5711C48.2251 26.5711 48.0011 26.5035 47.6143 26.3583C47.2992 26.2399 47.1922 26.0701 47.3147 25.8831C47.4362 25.6978 47.5872 25.6445 47.9797 25.6486C48.2644 25.6515 48.3988 25.6805 48.5992 25.7821C48.9206 25.9449 49.0127 25.9157 49.0127 25.6509C49.0127 25.5407 49.0366 25.4059 49.0657 25.3514C49.1438 25.2053 49.0121 25.1041 48.5534 24.9579C48.3315 24.8871 47.4737 24.8914 47.2658 24.9642ZM50.5776 24.9548C50.5384 24.9796 50.4396 25.0003 50.358 25.0007C50.2044 25.0015 49.8672 25.1024 49.8228 25.1609C49.8089 25.1792 49.8037 26.0394 49.8113 27.0725L49.8252 28.9508H50.2988C50.6186 28.9508 50.7878 28.9303 50.8199 28.8875C50.8482 28.85 50.853 28.5772 50.8319 28.2167C50.7922 27.541 50.8132 25.6101 50.8642 25.2526C50.8941 25.0426 50.8862 25.0178 50.7729 24.9662C50.6975 24.9318 50.621 24.9273 50.5776 24.9548ZM42.1547 25.7632C42.2966 25.8962 42.4304 26.1685 42.4304 26.3241C42.4304 26.413 42.3802 26.4191 41.6582 26.4184C40.9327 26.4177 40.669 26.3798 40.8047 26.2959C40.8355 26.2769 40.8608 26.2263 40.8608 26.1835C40.8608 26.0666 41.057 25.8144 41.2349 25.7026C41.466 25.5573 41.9704 25.5906 42.1547 25.7632ZM20.4304 26.6217C20.4476 26.6496 20.5176 26.6724 20.586 26.6724C20.831 26.6724 21.1338 26.9233 21.1884 27.1717C21.2462 27.4352 21.1728 27.7068 20.9898 27.9067C20.8974 28.0075 20.7781 28.0901 20.7248 28.0901C20.6715 28.0901 20.6043 28.1136 20.5755 28.1424C20.5437 28.1742 20.2954 28.1892 19.9451 28.1804L19.3671 28.166L19.353 27.4342C19.3452 27.0316 19.3502 26.6728 19.3641 26.6367C19.3949 26.5563 20.3814 26.5424 20.4304 26.6217ZM25.1899 29.4518L25.038 29.4851L25.0552 29.8762L25.0726 30.2673H24.8147C24.673 30.2673 24.557 30.2901 24.557 30.3179C24.557 30.3458 24.5 30.3686 24.4304 30.3686C24.3608 30.3686 24.3038 30.3913 24.3038 30.4192C24.3038 30.447 24.278 30.4698 24.2464 30.4698C24.1388 30.4698 23.9549 30.7418 23.8957 30.9888C23.8174 31.3153 23.9052 31.6375 24.1352 31.8675L24.3042 32.0364L24.861 32.0334L25.4177 32.0304V30.7185C25.4177 29.9969 25.4007 29.4092 25.3797 29.4125C25.3588 29.4158 25.2734 29.4335 25.1899 29.4518ZM40.1168 29.4429L39.9552 29.4631L39.9569 30.7513L39.9586 32.0394H40.1565H40.3544V31.4283C40.3544 30.7969 40.3914 30.6724 40.5787 30.6724C40.6224 30.6724 40.6582 30.6496 40.6582 30.6217C40.6582 30.5349 40.8036 30.5661 40.9363 30.6815C41.059 30.7882 41.0633 30.8129 41.0633 31.4156V32.0394H41.2658H41.4684V31.4098C41.4684 31.0635 41.4455 30.7201 41.4175 30.6465C41.3593 30.4933 41.2473 30.3686 41.1682 30.3686C41.1383 30.3686 41.1139 30.3458 41.1139 30.3179C41.1139 30.2901 41.0242 30.2673 40.9144 30.2673C40.8046 30.2673 40.7008 30.2901 40.6835 30.3179C40.6663 30.3458 40.6081 30.3686 40.554 30.3686C40.4999 30.3686 40.4557 30.3913 40.4557 30.4192C40.4557 30.447 40.4329 30.4698 40.4051 30.4698C40.3745 30.4698 40.3544 30.2588 40.3544 29.9382C40.3544 29.6458 40.3374 29.4102 40.3165 29.4146C40.2955 29.4191 40.2057 29.4318 40.1168 29.4429ZM19.6203 29.7284C19.5367 29.7602 19.4118 29.8417 19.3428 29.9095C19.2353 30.0151 19.2182 30.0755 19.2241 30.3299C19.23 30.5893 19.2492 30.6427 19.3749 30.7509C19.4542 30.819 19.5475 30.8748 19.5823 30.8748C19.6171 30.8748 19.6456 30.8977 19.6456 30.9255C19.6456 30.9534 19.6791 30.9762 19.7202 30.9762C19.7612 30.9762 19.8922 31.0307 20.0113 31.0974C20.2035 31.2051 20.2296 31.2416 20.2432 31.4218C20.2556 31.5858 20.2364 31.6404 20.1433 31.7056C20.0027 31.8041 19.7386 31.8059 19.47 31.7103C19.2565 31.6342 19.1923 31.6658 19.1906 31.8478C19.1892 32.0154 19.5877 32.1172 20.0296 32.062C20.242 32.0355 20.3454 31.9897 20.488 31.8591C20.6541 31.7069 20.6726 31.6639 20.6761 31.4205C20.6801 31.1436 20.5548 30.8799 20.4177 30.8765C20.3829 30.8756 20.3544 30.8521 20.3544 30.8243C20.3544 30.7964 20.3089 30.7736 20.2532 30.7736C20.1975 30.7736 20.1519 30.7508 20.1519 30.723C20.1519 30.6951 20.1063 30.6724 20.0506 30.6724C19.9949 30.6724 19.9494 30.6496 19.9494 30.6217C19.9494 30.5939 19.9142 30.5711 19.8711 30.5711C19.7817 30.5711 19.5443 30.3504 19.5443 30.2673C19.5443 30.2369 19.6003 30.1562 19.6686 30.0878C19.7636 29.9928 19.8463 29.9635 20.0201 29.9635C20.145 29.9635 20.2613 29.9863 20.2785 30.0141C20.3177 30.0777 20.557 30.0812 20.557 30.0183C20.557 29.9927 20.5702 29.9373 20.5864 29.8951C20.6599 29.7035 19.9891 29.5878 19.6203 29.7284ZM12.0704 29.7477C12.0317 29.7742 12.0159 30.1382 12.0197 30.9128L12.0253 32.0393L12.2283 32.0393L12.4313 32.0394L12.418 30.8875L12.4047 29.7356L12.2657 29.7224C12.1892 29.7152 12.1013 29.7266 12.0704 29.7477ZM12.9567 29.723C12.9537 29.73 12.948 30.254 12.944 30.8875L12.9367 32.0394H13.6616H14.3865L14.3704 31.9002L14.3544 31.761L13.8499 31.7463C13.5245 31.7369 13.3315 31.7099 13.3063 31.6704C13.2412 31.5679 13.2601 31.0946 13.3316 31.0352C13.3678 31.0052 13.59 30.9739 13.8253 30.9657C14.2488 30.951 14.2533 30.9494 14.269 30.8135L14.2849 30.6761L13.788 30.6616L13.2911 30.647L13.3017 30.4192C13.3243 29.9341 13.3121 29.9444 13.8242 29.9808C14.242 30.0104 14.2796 30.0053 14.33 29.9111C14.36 29.8552 14.3706 29.7872 14.3538 29.7599C14.3282 29.7185 12.9737 29.6827 12.9567 29.723ZM14.7595 29.7491C14.7284 29.772 14.7089 30.2204 14.7089 30.9129V32.0394H15.4304H16.1519V31.8875V31.7356H15.618H15.0842L15.099 31.3686L15.1139 31.0015L15.5823 30.9869L16.0506 30.9724V30.8223V30.6724H15.5696H15.0886V30.3903C15.0886 29.9886 15.1506 29.941 15.6218 29.9809C16.0644 30.0183 16.1519 29.9936 16.1519 29.8315V29.7103L15.481 29.7111C15.112 29.7115 14.7873 29.7286 14.7595 29.7491ZM16.5517 29.723C16.5489 29.73 16.5429 30.254 16.5384 30.8875L16.5302 32.0394H17.2213C17.8881 32.0394 17.9133 32.0356 17.941 31.9294C17.9569 31.8689 17.9582 31.8005 17.944 31.7775C17.9297 31.7545 17.6802 31.7356 17.3894 31.7356H16.8608V31.4167C16.8608 31.2361 16.8871 31.0713 16.9215 31.0369C16.9589 30.9995 17.1419 30.9762 17.3966 30.9762C17.7974 30.9762 17.8117 30.9721 17.8349 30.8508C17.8482 30.7818 17.847 30.7134 17.8324 30.6989C17.8178 30.6843 17.5933 30.6724 17.3333 30.6724H16.8608V30.3903C16.8608 29.9886 16.9227 29.941 17.3939 29.9809C17.8365 30.0183 17.9241 29.9936 17.9241 29.8315V29.7103H17.2405C16.8646 29.7103 16.5546 29.716 16.5517 29.723ZM31.7649 29.7609C31.7236 29.8038 31.7215 29.8736 31.7576 30.0043C31.7862 30.1079 31.8002 30.5895 31.7898 31.1135L31.7715 32.0394H32.3146C32.7728 32.0394 32.8873 32.0228 33.0474 31.9329C33.3152 31.7824 33.3636 31.6979 33.3655 31.3774C33.3671 31.0836 33.2782 30.9393 33.044 30.8562C32.9516 30.8233 32.9517 30.8197 33.0487 30.7347C33.3397 30.4795 33.3389 29.9969 33.047 29.8123C32.8985 29.7183 31.8465 29.6762 31.7649 29.7609ZM21.2911 29.8501C21.1546 29.878 21.0684 29.9975 21.0994 30.1159C21.1253 30.2149 21.0132 30.3686 20.915 30.3686C20.8852 30.3686 20.8608 30.423 20.8608 30.4897C20.8608 30.5755 20.8964 30.6197 20.9831 30.6415C21.1026 30.6714 21.1058 30.6862 21.1223 31.2709C21.1425 31.9848 21.1741 32.0394 21.566 32.0394C21.8157 32.0394 21.8228 32.0354 21.8228 31.8923C21.8228 31.7699 21.8057 31.7496 21.7213 31.7717C21.6654 31.7863 21.5886 31.7724 21.5505 31.7408C21.4658 31.6705 21.4078 31.0786 21.4583 30.7989C21.4912 30.6167 21.5112 30.5948 21.6588 30.5806C21.7967 30.5672 21.8228 30.5442 21.8228 30.4354C21.8228 30.3284 21.8042 30.311 21.7149 30.3343C21.5665 30.3731 21.4684 30.2584 21.4684 30.046C21.4684 29.8497 21.441 29.8195 21.2911 29.8501ZM29.7468 29.8501C29.6103 29.878 29.5241 29.9975 29.5551 30.1159C29.581 30.2149 29.4689 30.3686 29.3707 30.3686C29.3409 30.3686 29.3165 30.4279 29.3165 30.5006C29.3165 30.5941 29.3375 30.6245 29.3887 30.6048C29.5206 30.5542 29.5589 30.6922 29.5771 31.2836C29.5986 31.9832 29.6316 32.0394 30.0217 32.0394C30.2705 32.0394 30.2785 32.0349 30.2785 31.8946C30.2785 31.7705 30.2617 31.7529 30.1615 31.7721C29.9601 31.8105 29.9191 31.6926 29.9349 31.1207L29.9494 30.5964L30.1139 30.5806C30.2525 30.5672 30.2785 30.5443 30.2785 30.4354C30.2785 30.3284 30.2599 30.311 30.1706 30.3343C30.0222 30.3731 29.9241 30.2584 29.9241 30.046C29.9241 29.8497 29.8967 29.8195 29.7468 29.8501ZM32.6582 30.0141C32.6582 30.042 32.6826 30.0648 32.7125 30.0648C32.8025 30.0648 32.9114 30.2026 32.9114 30.3166C32.9114 30.3755 32.8554 30.4797 32.7871 30.5481C32.6851 30.6501 32.6127 30.6724 32.382 30.6724H32.1013V30.3787C32.1013 30.2172 32.1286 30.0577 32.162 30.0243C32.2352 29.951 32.6582 29.9424 32.6582 30.0141ZM22.1899 30.3355L22.0253 30.3895V30.7926C22.0253 31.3895 22.1099 31.8035 22.2607 31.9453C22.3658 32.044 22.4356 32.0619 22.6935 32.0559C22.8863 32.0515 23.0186 32.0235 23.0486 31.9809C23.0858 31.9278 23.102 31.9268 23.122 31.9762C23.1364 32.0116 23.2348 32.0394 23.346 32.0394H23.5443L23.5435 31.2167C23.5431 30.7642 23.5224 30.3618 23.4976 30.3225C23.4598 30.2629 23.4265 30.2618 23.2958 30.316L23.1392 30.3809V31.0248C23.1392 31.6657 23.1386 31.669 23.0103 31.7275C22.8245 31.8122 22.6643 31.8 22.5394 31.6917C22.4381 31.6039 22.4304 31.5499 22.4304 30.9323C22.4304 30.5665 22.4133 30.2705 22.3924 30.2744C22.3715 30.2783 22.2804 30.3058 22.1899 30.3355ZM26.3291 30.3179C26.3291 30.3458 26.2908 30.3686 26.2441 30.3686C26.0952 30.3686 25.8362 30.7038 25.8035 30.9388C25.7635 31.2267 25.7635 31.2324 25.7992 31.4065C25.8616 31.7105 26.0093 31.9382 26.144 31.9382C26.1855 31.9382 26.2283 31.9648 26.2391 31.9973C26.2671 32.0813 27.0089 32.076 27.1112 31.991C27.1545 31.9551 27.1899 31.8596 27.1899 31.7788C27.1899 31.6323 27.1894 31.6321 27.0405 31.709C26.9583 31.7515 26.7909 31.7863 26.6685 31.7863C26.4266 31.7863 26.3016 31.7046 26.1792 31.4665C26.0742 31.2622 26.1525 31.231 26.7722 31.2301L27.2911 31.2293L27.2908 31.0901C27.2901 30.7399 27.0701 30.3686 26.8633 30.3686C26.8234 30.3686 26.7767 30.3458 26.7595 30.3179C26.7423 30.2901 26.6384 30.2673 26.5287 30.2673C26.4189 30.2673 26.3291 30.2901 26.3291 30.3179ZM27.8481 30.3173C27.8063 30.3415 27.738 30.3713 27.6962 30.3837C27.632 30.4027 27.6226 30.5317 27.6353 31.2228L27.6504 32.0394H27.8252H28V31.4283C28 30.7969 28.037 30.6724 28.2243 30.6724C28.268 30.6724 28.3038 30.6496 28.3038 30.6217C28.3038 30.5454 28.4437 30.5609 28.584 30.6529C28.706 30.7328 28.7089 30.7495 28.7089 31.387V32.0394H28.9114H29.1139V31.3356V30.6318L28.9316 30.4496C28.7847 30.3026 28.7111 30.2673 28.5519 30.2673C28.4433 30.2673 28.3544 30.2901 28.3544 30.3179C28.3544 30.3458 28.2975 30.3686 28.2278 30.3686C28.1582 30.3686 28.0997 30.3971 28.0978 30.4318C28.096 30.4667 28.0697 30.4438 28.0395 30.3812C27.9797 30.2572 27.9619 30.2513 27.8481 30.3173ZM34.0506 30.3179C34.0334 30.3458 33.9671 30.3686 33.9032 30.3686H33.7871L33.7923 31.204L33.7975 32.0394L33.9873 32.0394H34.1772V31.4849C34.1772 30.8578 34.2319 30.6724 34.4168 30.6724C34.5754 30.6724 34.6835 30.5609 34.6835 30.3975C34.6835 30.2914 34.6594 30.2673 34.5534 30.2673C34.4817 30.2673 34.3864 30.304 34.3416 30.3489C34.2666 30.4238 34.2552 30.4238 34.2004 30.3489C34.1314 30.2546 34.0945 30.2469 34.0506 30.3179ZM35.2658 30.3179C35.2486 30.3458 35.1789 30.3686 35.1109 30.3686C35.0073 30.3686 34.9873 30.3932 34.9873 30.5205C34.9873 30.6386 35.0098 30.6724 35.0886 30.6724C35.1443 30.6724 35.1899 30.6496 35.1899 30.6217C35.1899 30.5429 35.643 30.5613 35.7251 30.6434C35.8463 30.7646 35.81 30.8618 35.6329 30.8906C35.1814 30.9643 34.8861 31.123 34.8861 31.2919C34.8861 31.3411 34.8633 31.3812 34.8354 31.3812C34.8076 31.3812 34.7848 31.461 34.7848 31.5584C34.7848 31.6559 34.8076 31.7356 34.8354 31.7356C34.8633 31.7356 34.8861 31.7693 34.8861 31.8104C34.8861 31.8515 34.9425 31.9222 35.0114 31.9673C35.1348 32.0482 35.1945 32.0537 35.8481 32.0447L36.1772 32.0402L36.1621 31.3436C36.1459 30.5942 36.0952 30.3686 35.9432 30.3686C35.8909 30.3686 35.8481 30.3458 35.8481 30.3179C35.8481 30.2901 35.7242 30.2673 35.5726 30.2673C35.4211 30.2673 35.283 30.2901 35.2658 30.3179ZM36.8354 30.3179C36.8182 30.3458 36.7453 30.3686 36.6734 30.3686C36.5433 30.3686 36.5427 30.3705 36.5751 30.6798C36.593 30.8509 36.6076 31.2269 36.6076 31.5152V32.0394H36.7848H36.962V31.4283C36.962 30.7969 36.999 30.6724 37.1863 30.6724C37.23 30.6724 37.2658 30.6496 37.2658 30.6217C37.2658 30.538 37.4454 30.5646 37.5619 30.6656C37.6627 30.7531 37.6709 30.8081 37.6709 31.3998V32.0394H37.8734H38.076V31.3779C38.076 30.6923 38.053 30.5942 37.8439 30.3851C37.7594 30.3006 37.6682 30.2673 37.5213 30.2673C37.4086 30.2673 37.3165 30.2901 37.3165 30.3179C37.3165 30.3458 37.2614 30.3686 37.1941 30.3686C37.1268 30.3686 37.06 30.3971 37.0456 30.4318C37.0298 30.4702 37.0058 30.4502 36.9849 30.3812C36.9481 30.2603 36.887 30.2344 36.8354 30.3179ZM39.0127 30.3179C38.9954 30.3458 38.9445 30.3686 38.8993 30.3686C38.7889 30.3686 38.481 30.7111 38.481 30.8339C38.481 30.8879 38.4572 30.9767 38.4281 31.0312C38.3903 31.1017 38.3936 31.2102 38.4397 31.4084C38.5479 31.8736 38.7798 32.0517 39.274 32.0489C39.6313 32.0468 39.7468 31.9772 39.7468 31.7639C39.7468 31.6331 39.7467 31.6331 39.5634 31.7097C39.2359 31.8465 38.991 31.7752 38.8632 31.5058C38.6148 30.9823 39.0624 30.3658 39.4959 30.6344C39.5801 30.6865 39.6065 30.6843 39.6463 30.6217C39.7292 30.4915 39.7007 30.3963 39.5591 30.3306C39.396 30.2548 39.0566 30.2469 39.0127 30.3179ZM25.0326 30.6512C25.0721 30.7543 25.0712 31.4223 25.0313 31.5712C24.9641 31.822 24.4507 31.7921 24.3172 31.5295C24.1764 31.2527 24.3211 30.6724 24.5309 30.6724C24.5731 30.6724 24.6076 30.6496 24.6076 30.6217C24.6076 30.5344 24.9981 30.5615 25.0326 30.6512ZM26.8263 30.6981C27.0292 30.9314 26.9818 30.9762 26.5316 30.9762C26.3089 30.9762 26.1266 30.9632 26.1266 30.9475C26.1266 30.9051 26.2331 30.7137 26.298 30.6395C26.3994 30.5235 26.7039 30.5573 26.8263 30.6981ZM32.7605 31.0526C33.1726 31.2657 33.0426 31.6817 32.5405 31.757C32.1471 31.816 32.1013 31.7802 32.1013 31.4133C32.1013 31.2353 32.1277 31.0712 32.162 31.0369C32.2467 30.9522 32.5834 30.961 32.7605 31.0526ZM35.7975 31.4301C35.7975 31.6268 35.7762 31.6929 35.6995 31.7339C35.4656 31.859 35.1899 31.7426 35.1899 31.5185C35.1899 31.3472 35.4066 31.1787 35.6271 31.1787H35.7975V31.4301Z" fill="#12679B"/>
</svg>
